<svg width="17" height="17" viewBox="0 0 17 17" fill="none" xmlns="http://www.w3.org/2000/svg">
<path d="M0.580036 0.00100276C0.477829 0.00099642 0.377436 0.0279984 0.289022 0.0792742C0.200608 0.13055 0.127313 0.204279 0.0765608 0.292994C0.0258083 0.381709 -0.000599924 0.482261 1.03419e-05 0.584466C0.000620608 0.686671 0.0282277 0.7869 0.080036 0.875003L6.37004 9.266V15.636C6.37001 15.7347 6.39522 15.8318 6.44328 15.918C6.49133 16.0043 6.56063 16.0768 6.6446 16.1287C6.72857 16.1806 6.82441 16.2101 6.92302 16.2146C7.02164 16.219 7.11975 16.1982 7.20804 16.154L9.52404 14.996C9.62022 14.9479 9.7011 14.874 9.75762 14.7825C9.81414 14.691 9.84407 14.5855 9.84404 14.478V9.265L16.134 0.874003C16.1862 0.785953 16.214 0.685659 16.2148 0.583334C16.2156 0.481009 16.1892 0.380308 16.1384 0.291488C16.0876 0.202667 16.0141 0.1289 15.9255 0.0776973C15.8369 0.0264948 15.7364 -0.00031338 15.634 2.76411e-06L0.580036 0.00100276ZM1.59504 1.159H14.621L8.76704 8.813C8.71437 8.90201 8.68673 9.00358 8.68704 9.107V14.119L7.52804 14.701V9.107C7.52795 9.00364 7.50034 8.90216 7.44804 8.813L1.59504 1.159Z" fill="black"/>
</svg>
