<svg width="41" height="41" viewBox="0 0 41 41" fill="none" xmlns="http://www.w3.org/2000/svg">
<path d="M11.5122 9.90405H14.1032V12.4951H11.5122V9.90405Z" fill="#268C56"/>
<path d="M25.7651 22.213H28.3561V24.804H25.7651V22.213Z" fill="#268C56"/>
<path d="M29.6523 22.213H32.2433V24.804H29.6523V22.213Z" fill="#116035"/>
<path d="M18.6219 37.5681L17.6279 38.4521L18.6279 37.5691L18.6219 37.5681Z" fill="#33B575"/>
<path d="M34.9641 13.318L31.9711 15.56L30.7141 16.499L32.0621 18.741C32.1681 18.9212 32.2294 19.1243 32.2407 19.3331C32.252 19.5419 32.213 19.7504 32.1271 19.941L28.8871 27.065C28.7586 27.3513 28.5309 27.5814 28.2461 27.713L22.5841 30.285L23.5621 31.585C23.7554 31.8451 23.8446 32.168 23.8122 32.4904C23.7799 32.8128 23.6282 33.1116 23.3871 33.328L19.3571 36.911L18.6221 37.565L22.5221 40.351L28.3531 35.168L26.4091 32.577L33.5351 29.338L36.7741 22.212L34.8301 18.973L40.0131 15.086L39.3651 11.199L35.1111 9.98401L35.4581 12.067C35.4982 12.3012 35.4728 12.542 35.3846 12.7626C35.2963 12.9832 35.1487 13.1751 34.9581 13.317L34.9641 13.318Z" fill="#116035"/>
<path d="M25.765 4.07306L22.526 2.78206L20.582 5.36906H15.4L14.695 1.48206L5.03397 5.36906L5.68197 11.2001H3.09097L1.14697 15.0821L6.32997 18.3211L7.46997 18.5841L6.98497 14.2531C6.95349 13.9719 7.01457 13.6882 7.15895 13.4449C7.30333 13.2016 7.52312 13.0121 7.78497 12.9051L14.985 10.0051L17.447 9.01406C17.6655 8.92955 17.9027 8.90504 18.134 8.94306C18.2824 8.96214 18.4256 9.01076 18.555 9.08606C18.7232 9.17839 18.8686 9.3071 18.9807 9.4628C19.0928 9.61851 19.1688 9.79727 19.203 9.98606L19.715 12.8111H23.168L24.468 11.0811L24.727 10.7381C24.898 10.5106 25.1389 10.3456 25.4128 10.2683C25.6866 10.191 25.9783 10.2056 26.243 10.3101L29.482 11.6101C29.7219 11.7063 29.9276 11.8719 30.073 12.0856C30.2183 12.2993 30.2967 12.5516 30.298 12.8101V15.0821L31.968 15.5611L34.962 13.3201C35.1526 13.1782 35.3002 12.9863 35.3885 12.7656C35.4767 12.545 35.5022 12.3043 35.462 12.0701L35.116 9.98206L25.765 7.31306V4.07306Z" fill="#48D88D"/>
<path d="M34.9642 13.3181L31.9702 15.5591L34.9642 13.3181Z" fill="#48D88D"/>
<path d="M23.562 31.587L22.584 30.287L28.246 27.715C28.5309 27.5835 28.7586 27.3533 28.887 27.067L32.126 19.941C32.212 19.7504 32.2509 19.5419 32.2396 19.3331C32.2283 19.1243 32.1671 18.9213 32.061 18.741L30.713 16.499L31.969 15.559L30.299 15.08V12.819C30.2977 12.5606 30.2194 12.3083 30.074 12.0946C29.9287 11.8808 29.7229 11.7153 29.483 11.619L26.244 10.319C25.9793 10.2146 25.6877 10.2 25.4138 10.2773C25.14 10.3546 24.899 10.5196 24.728 10.747L24.469 11.09L23.169 12.82H19.72L19.208 9.99504C19.1738 9.80625 19.0979 9.62749 18.9857 9.47179C18.8736 9.31608 18.7282 9.18737 18.56 9.09504C18.4306 9.01974 18.2875 8.97112 18.139 8.95204C17.9078 8.91402 17.6706 8.93854 17.452 9.02304L14.99 10.014L7.79001 12.914C7.52815 13.0211 7.30836 13.2106 7.16399 13.4539C7.01961 13.6972 6.95853 13.9809 6.99001 14.262L7.47501 18.593L14.757 20.274L15.405 23.513L17.996 24.813L17.348 28.7L20.578 33.231L17.987 37.118L18.619 37.571L23.387 33.331C23.6282 33.1146 23.7798 32.8159 23.8122 32.4934C23.8445 32.171 23.7553 31.8481 23.562 31.588V31.587Z" fill="#33B575"/>
<path d="M23.3871 33.33L18.6221 37.564L19.3571 36.912L23.3871 33.33Z" fill="#33B575"/>
<path d="M31.9743 15.5601L30.7183 16.5001L31.9743 15.5601Z" fill="#33B575"/>
<path d="M35.7223 5.36906C35.7223 5.39606 35.7173 5.42306 35.7173 5.45006H37.4263V1.48206H33.9663C34.5189 1.96755 34.9614 2.56548 35.2643 3.23583C35.5671 3.90618 35.7233 4.63348 35.7223 5.36906Z" fill="#F8DC32"/>
<path d="M30.9473 5.45006H35.7163C35.7163 5.42306 35.7213 5.39606 35.7213 5.36906C35.7224 4.63355 35.5664 3.9063 35.2637 3.23596C34.961 2.56561 34.5187 1.96764 33.9663 1.48206H30.9473V5.45006Z" fill="#D6AE03"/>
<path d="M12.8082 13.143C12.6363 13.143 12.4715 13.0748 12.35 12.9532C12.2284 12.8317 12.1602 12.6669 12.1602 12.495V9.90403C12.1602 9.73164 12.2286 9.56631 12.3505 9.44441C12.4724 9.32251 12.6378 9.25403 12.8102 9.25403C12.9825 9.25403 13.1479 9.32251 13.2698 9.44441C13.3917 9.56631 13.4602 9.73164 13.4602 9.90403V12.495C13.4602 12.5805 13.4433 12.6651 13.4104 12.7439C13.3776 12.8228 13.3295 12.8944 13.2689 12.9547C13.2084 13.0149 13.1364 13.0625 13.0574 13.0949C12.9783 13.1272 12.8936 13.1436 12.8082 13.143Z" fill="#192B54"/>
<path d="M27.0611 25.452C26.8892 25.452 26.7244 25.3838 26.6029 25.2623C26.4814 25.1407 26.4131 24.9759 26.4131 24.804V22.213C26.4131 22.0407 26.4816 21.8753 26.6035 21.7534C26.7254 21.6315 26.8907 21.563 27.0631 21.563C27.2355 21.563 27.4008 21.6315 27.5227 21.7534C27.6446 21.8753 27.7131 22.0407 27.7131 22.213V24.804C27.7131 24.8895 27.6962 24.9741 27.6634 25.053C27.6306 25.1318 27.5825 25.2034 27.5219 25.2637C27.4613 25.3239 27.3894 25.3715 27.3103 25.4039C27.2312 25.4362 27.1465 25.4526 27.0611 25.452Z" fill="#192B54"/>
<path d="M30.9483 25.452C30.8632 25.452 30.7789 25.4353 30.7003 25.4027C30.6217 25.3702 30.5503 25.3224 30.4901 25.2623C30.4299 25.2021 30.3822 25.1306 30.3496 25.052C30.3171 24.9734 30.3003 24.8891 30.3003 24.804V22.213C30.3003 22.0407 30.3688 21.8753 30.4907 21.7534C30.6126 21.6315 30.7779 21.563 30.9503 21.563C31.1227 21.563 31.288 21.6315 31.4099 21.7534C31.5318 21.8753 31.6003 22.0407 31.6003 22.213V24.804C31.6003 24.8895 31.5834 24.9741 31.5506 25.053C31.5178 25.1318 31.4697 25.2034 31.4091 25.2637C31.3485 25.3239 31.2766 25.3715 31.1975 25.4039C31.1184 25.4362 31.0337 25.4526 30.9483 25.452Z" fill="#192B54"/>
<path d="M35.8941 24.804C35.7856 24.8041 35.6787 24.7769 35.5834 24.725C35.4881 24.673 35.4074 24.5979 35.3487 24.5067C35.29 24.4154 35.2551 24.3108 35.2473 24.2025C35.2395 24.0943 35.2591 23.9858 35.3041 23.887L36.0461 22.253L34.2771 19.306C34.1949 19.1686 34.1664 19.0056 34.1973 18.8485C34.2281 18.6913 34.316 18.5512 34.4441 18.455L39.3121 14.804L38.8001 11.71L25.5871 7.93404C25.4517 7.89536 25.3326 7.81363 25.2478 7.70122C25.163 7.58882 25.1171 7.45184 25.1171 7.31104V4.51104L22.7461 3.56304L21.1001 5.75804C21.0398 5.83842 20.9616 5.90367 20.8717 5.94863C20.7818 5.99358 20.6826 6.017 20.5821 6.01704H15.4001C15.2483 6.01687 15.1014 5.96342 14.985 5.86601C14.8686 5.7686 14.79 5.63342 14.7631 5.48404L14.2011 2.38404L5.73211 5.78704L6.32511 11.128C6.33509 11.2186 6.32587 11.3102 6.29806 11.3969C6.27025 11.4836 6.22447 11.5635 6.1637 11.6314C6.10293 11.6992 6.02855 11.7535 5.94539 11.7906C5.86224 11.8278 5.77219 11.847 5.68111 11.847H3.49111L1.99111 14.847L6.58211 17.717L7.77111 17.991C7.85404 18.0101 7.93239 18.0454 8.0017 18.0948C8.071 18.1442 8.1299 18.2067 8.17503 18.2789C8.22016 18.351 8.25064 18.4314 8.26472 18.5153C8.2788 18.5992 8.27622 18.6851 8.25711 18.768C8.238 18.851 8.20275 18.9293 8.15336 18.9986C8.10397 19.0679 8.04142 19.1268 7.96926 19.172C7.89711 19.2171 7.81678 19.2476 7.73285 19.2616C7.64892 19.2757 7.56304 19.2731 7.48011 19.254L6.18011 18.954C6.10932 18.9381 6.04172 18.9104 5.98011 18.872L0.80011 15.634C0.662742 15.5485 0.562349 15.4147 0.518675 15.2588C0.475002 15.103 0.491209 14.9365 0.56411 14.792L2.51011 10.907C2.56427 10.7997 2.64719 10.7096 2.74961 10.6468C2.85204 10.5839 2.96993 10.5508 3.09011 10.551H4.95811L4.39011 5.44004C4.37449 5.29974 4.40511 5.15819 4.47731 5.03689C4.54951 4.9156 4.65934 4.82119 4.79011 4.76804L14.4511 0.881036C14.5404 0.84522 14.6364 0.829715 14.7324 0.835645C14.8284 0.841575 14.9219 0.868791 15.006 0.91532C15.0902 0.961849 15.1629 1.02652 15.219 1.10465C15.275 1.18278 15.313 1.27241 15.3301 1.36704L15.9381 4.72204H20.2561L22.0051 2.39004C22.0906 2.27601 22.2113 2.19335 22.3485 2.15484C22.4857 2.11634 22.6318 2.12414 22.7641 2.17704L26.0031 3.47704C26.123 3.52508 26.2259 3.60788 26.2984 3.71479C26.3709 3.8217 26.4098 3.94785 26.4101 4.07704V6.82404L39.5451 10.577C39.6631 10.6108 39.7691 10.6775 39.8507 10.7692C39.9323 10.8609 39.9862 10.9739 40.0061 11.095L40.6541 14.982C40.6737 15.0991 40.6607 15.2193 40.6166 15.3295C40.5725 15.4398 40.499 15.5358 40.4041 15.607L35.6901 19.143L37.3331 21.881C37.3868 21.9709 37.4179 22.0724 37.4239 22.1769C37.4298 22.2813 37.4103 22.3857 37.3671 22.481L36.4831 24.425C36.4312 24.5378 36.348 24.6332 36.2434 24.7001C36.1388 24.7669 36.0172 24.8023 35.8931 24.802L35.8941 24.804Z" fill="#192B54"/>
<path d="M22.526 41.0001C22.3912 40.9998 22.2597 40.9575 22.15 40.8791L17.615 37.6411C17.478 37.5433 17.3843 37.3961 17.3539 37.2306C17.3235 37.065 17.3587 36.8941 17.452 36.7541L19.795 33.2391L16.815 29.0681C16.7155 28.9281 16.6756 28.7544 16.704 28.5851L17.273 25.1701L15.11 24.0911C15.0218 24.0468 14.9449 23.983 14.8851 23.9045C14.8253 23.826 14.7842 23.7349 14.765 23.6381L14.199 20.8091L10.07 19.8541C9.9871 19.8349 9.90876 19.7996 9.83948 19.7501C9.7702 19.7007 9.71134 19.6381 9.66625 19.5659C9.62117 19.4937 9.59075 19.4133 9.57673 19.3293C9.5627 19.2454 9.56536 19.1595 9.58453 19.0766C9.6037 18.9936 9.63902 18.9153 9.68847 18.846C9.73792 18.7767 9.80053 18.7179 9.87273 18.6728C9.94493 18.6277 10.0253 18.5973 10.1093 18.5833C10.1932 18.5692 10.2791 18.5719 10.362 18.5911L14.897 19.6371C15.018 19.6647 15.1285 19.7266 15.2154 19.8152C15.3022 19.9038 15.3618 20.0155 15.387 20.1371L15.97 23.0661L18.278 24.2201C18.4019 24.2821 18.5026 24.3822 18.5654 24.5056C18.6282 24.6291 18.6498 24.7694 18.627 24.9061L18.027 28.5281L21.11 32.8451C21.1865 32.952 21.2285 33.0797 21.2307 33.2112C21.2328 33.3426 21.1949 33.4716 21.122 33.5811L18.879 36.9461L22.479 39.5211L27.479 35.0771L25.896 32.9641C25.838 32.8865 25.7981 32.797 25.7792 32.702C25.7603 32.607 25.763 32.509 25.787 32.4152C25.8109 32.3214 25.8556 32.2342 25.9178 32.1599C25.9799 32.0856 26.0579 32.0262 26.146 31.9861L33.046 28.8471L34.124 26.4771C34.199 26.327 34.3293 26.2119 34.4874 26.1559C34.6455 26.1 34.8191 26.1075 34.9718 26.1769C35.1245 26.2463 35.2443 26.3722 35.3061 26.5282C35.3679 26.6841 35.3668 26.8579 35.303 27.0131L34.125 29.6041C34.0601 29.7479 33.9449 29.8631 33.801 29.9281L27.411 32.8351L28.87 34.7811C28.9676 34.911 29.0128 35.0728 28.9967 35.2345C28.9806 35.3962 28.9043 35.546 28.783 35.6541L22.952 40.8371C22.8334 40.9421 22.6805 41.0001 22.522 41.0001H22.526Z" fill="#192B54"/>
<path d="M30.9483 13.467C30.8632 13.467 30.7789 13.4503 30.7003 13.4177C30.6217 13.3851 30.5503 13.3374 30.4901 13.2772C30.4299 13.2171 30.3822 13.1456 30.3496 13.067C30.3171 12.9884 30.3003 12.9041 30.3003 12.819V1.48203C30.3003 1.30964 30.3688 1.14431 30.4907 1.02241C30.6126 0.900513 30.7779 0.832031 30.9503 0.832031C31.1227 0.832031 31.288 0.900513 31.4099 1.02241C31.5318 1.14431 31.6003 1.30964 31.6003 1.48203V12.819C31.6003 12.9045 31.5834 12.9891 31.5506 13.0679C31.5178 13.1468 31.4697 13.2184 31.4091 13.2787C31.3485 13.3389 31.2766 13.3865 31.1975 13.4189C31.1184 13.4512 31.0337 13.4676 30.9483 13.467Z" fill="#192B54"/>
<path d="M37.4263 6.01705H30.9483C30.8632 6.01705 30.7789 6.00028 30.7003 5.96772C30.6217 5.93515 30.5503 5.88742 30.4901 5.82725C30.4299 5.76708 30.3822 5.69564 30.3496 5.61702C30.3171 5.53841 30.3003 5.45414 30.3003 5.36905V1.48205C30.3003 1.39695 30.3171 1.31269 30.3496 1.23407C30.3822 1.15545 30.4299 1.08401 30.4901 1.02384C30.5503 0.963668 30.6217 0.915937 30.7003 0.883371C30.7789 0.850806 30.8632 0.834045 30.9483 0.834045H32.8923C33.0647 0.834045 33.23 0.902527 33.3519 1.02443C33.4738 1.14632 33.5423 1.31165 33.5423 1.48405C33.5423 1.65644 33.4738 1.82177 33.3519 1.94366C33.23 2.06556 33.0647 2.13405 32.8923 2.13405H31.6003V4.72105H36.7833V2.13405H35.4833C35.3109 2.13405 35.1456 2.06556 35.0237 1.94366C34.9018 1.82177 34.8333 1.65644 34.8333 1.48405C34.8333 1.31165 34.9018 1.14632 35.0237 1.02443C35.1456 0.902527 35.3109 0.834045 35.4833 0.834045H37.4273C37.5992 0.834045 37.764 0.902317 37.8855 1.02384C38.007 1.14536 38.0753 1.31019 38.0753 1.48205V5.36905C38.0753 5.45423 38.0585 5.53857 38.0259 5.61726C37.9932 5.69594 37.9454 5.76742 37.8851 5.8276C37.8249 5.88779 37.7533 5.9355 37.6746 5.96801C37.5958 6.00051 37.5115 6.01718 37.4263 6.01705Z" fill="#192B54"/>
<path d="M20.5871 15.091H19.9391C19.7667 15.091 19.6013 15.0225 19.4794 14.9006C19.3575 14.7787 19.2891 14.6134 19.2891 14.441C19.2891 14.2686 19.3575 14.1033 19.4794 13.9814C19.6013 13.8595 19.7667 13.791 19.9391 13.791H20.5871C20.7595 13.791 20.9248 13.8595 21.0467 13.9814C21.1686 14.1033 21.2371 14.2686 21.2371 14.441C21.2371 14.6134 21.1686 14.7787 21.0467 14.9006C20.9248 15.0225 20.7595 15.091 20.5871 15.091Z" fill="#192B54"/>
<path d="M23.1779 15.091H22.5299C22.3575 15.091 22.1922 15.0225 22.0703 14.9006C21.9484 14.7787 21.8799 14.6134 21.8799 14.441C21.8799 14.2686 21.9484 14.1033 22.0703 13.9814C22.1922 13.8595 22.3575 13.791 22.5299 13.791H23.1779C23.3503 13.791 23.5156 13.8595 23.6375 13.9814C23.7594 14.1033 23.8279 14.2686 23.8279 14.441C23.8279 14.6134 23.7594 14.7787 23.6375 14.9006C23.5156 15.0225 23.3503 15.091 23.1779 15.091Z" fill="#192B54"/>
</svg>
