<svg width="11" height="9" viewBox="0 0 11 9" fill="none" xmlns="http://www.w3.org/2000/svg">
<path d="M9.83178 0.000110397C9.68319 0.00572788 9.53729 0.0414964 9.40288 0.105091C9.26848 0.168685 9.14834 0.258903 9.04977 0.370228C7.24977 2.31323 5.60778 4.21923 3.87978 6.12023L1.84878 4.3651C1.73453 4.26487 1.60045 4.1899 1.45528 4.14489C1.31012 4.09988 1.1571 4.08586 1.00619 4.10387C0.855273 4.12189 0.709831 4.17146 0.579337 4.24938C0.448844 4.3273 0.336218 4.43171 0.248771 4.55602C0.059674 4.81415 -0.0269088 5.13346 0.00579012 5.45177C0.0384891 5.77008 0.188145 6.06487 0.425773 6.27916L3.26879 8.73009C3.4835 8.91693 3.76338 9.01128 4.04739 8.99254C4.33139 8.97381 4.59647 8.84342 4.78478 8.62999C6.82978 6.42199 8.66178 4.2531 10.6598 2.0941C10.8762 1.85825 10.9975 1.55065 11.0002 1.23058C11.003 0.910505 10.887 0.60076 10.6748 0.361194C10.5685 0.24392 10.4382 0.150791 10.2927 0.0884893C10.1472 0.0261879 9.98999 -0.00390254 9.83178 0.000110397Z" fill="white"/>
</svg>
