<svg width="11" height="11" viewBox="0 0 11 11" fill="none" xmlns="http://www.w3.org/2000/svg">
<path d="M10.3492 1.24997C10.2668 1.16737 10.1689 1.10183 10.0612 1.05711C9.9534 1.0124 9.83788 0.98938 9.7212 0.98938C9.60453 0.98938 9.48901 1.0124 9.38124 1.05711C9.27348 1.10183 9.1756 1.16737 9.0932 1.24997L5.77921 4.53798L2.4912 1.24997C2.40873 1.1675 2.31083 1.10209 2.20308 1.05745C2.09532 1.01282 1.97984 0.989849 1.8632 0.989849C1.74657 0.989849 1.63108 1.01282 1.52333 1.05745C1.41558 1.10209 1.31767 1.1675 1.2352 1.24997C1.15273 1.33244 1.08732 1.43035 1.04268 1.5381C0.99805 1.64585 0.975079 1.76135 0.975079 1.87798C0.975079 1.99461 0.99805 2.11009 1.04268 2.21785C1.08732 2.3256 1.15273 2.4235 1.2352 2.50597L4.5232 5.79398L1.2352 9.10897C1.1526 9.19137 1.08706 9.28925 1.04234 9.39701C0.997626 9.50478 0.974609 9.6203 0.974609 9.73697C0.974609 9.85365 0.997626 9.96917 1.04234 10.0769C1.08706 10.1847 1.1526 10.2826 1.2352 10.365C1.39938 10.5281 1.61894 10.6234 1.8502 10.632C1.96582 10.6338 2.08049 10.611 2.18655 10.5649C2.29261 10.5189 2.38761 10.4507 2.4652 10.365L5.7802 7.04997L9.0682 10.338C9.23238 10.5011 9.45194 10.5964 9.6832 10.605C9.79917 10.6094 9.91466 10.5877 10.0211 10.5415C10.1276 10.4953 10.2223 10.4257 10.2982 10.338C10.3808 10.2556 10.4463 10.1577 10.4911 10.0499C10.5358 9.94217 10.5588 9.82664 10.5588 9.70997C10.5588 9.5933 10.5358 9.47778 10.4911 9.37001C10.4463 9.26225 10.3808 9.16437 10.2982 9.08197L7.0352 5.79398L10.3232 2.50597C10.4102 2.42692 10.4802 2.33096 10.5289 2.22395C10.5776 2.11694 10.604 2.00112 10.6064 1.88357C10.6089 1.76602 10.5873 1.64921 10.5431 1.54027C10.4989 1.43133 10.4329 1.33256 10.3492 1.24997Z" fill="white"/>
</svg>
