<svg width="12" height="14" viewBox="0 0 12 14" fill="none" xmlns="http://www.w3.org/2000/svg">
<path d="M5.57824 10.138C5.46555 10.1371 5.35775 10.0919 5.27824 10.012L3.56224 8.29601C3.52238 8.25615 3.49077 8.20883 3.4692 8.15676C3.44763 8.10468 3.43652 8.04887 3.43652 7.99251C3.43652 7.93614 3.44763 7.88033 3.4692 7.82825C3.49077 7.77618 3.52238 7.72886 3.56224 7.68901C3.60209 7.64915 3.64941 7.61753 3.70148 7.59596C3.75356 7.57439 3.80937 7.56329 3.86574 7.56329C3.9221 7.56329 3.97792 7.57439 4.02999 7.59596C4.08206 7.61753 4.12938 7.64915 4.16924 7.68901L5.58224 9.10201L6.99524 7.68901C7.07573 7.60851 7.1849 7.56329 7.29874 7.56329C7.41257 7.56329 7.52174 7.60851 7.60224 7.68901C7.68273 7.7695 7.72795 7.87867 7.72795 7.99251C7.72795 8.10634 7.68273 8.21551 7.60224 8.29601L5.88624 10.012C5.84591 10.0525 5.79788 10.0845 5.74498 10.1062C5.69209 10.1278 5.63539 10.1386 5.57824 10.138Z" fill="#272727"/>
<path d="M5.57793 10.138C5.46415 10.138 5.35503 10.0928 5.27458 10.0123C5.19412 9.93185 5.14893 9.82273 5.14893 9.70895V5.41795C5.14893 5.30417 5.19412 5.19506 5.27458 5.1146C5.35503 5.03415 5.46415 4.98895 5.57793 4.98895C5.6917 4.98895 5.80082 5.03415 5.88127 5.1146C5.96173 5.19506 6.00693 5.30417 6.00693 5.41795V9.70895C6.00693 9.82273 5.96173 9.93185 5.88127 10.0123C5.80082 10.0928 5.6917 10.138 5.57793 10.138Z" fill="#272727"/>
<path d="M8.1532 11.854H3.0042C2.89042 11.854 2.7813 11.8088 2.70085 11.7283C2.62039 11.6479 2.5752 11.5388 2.5752 11.425C2.5752 11.3112 2.62039 11.2021 2.70085 11.1216C2.7813 11.0412 2.89042 10.996 3.0042 10.996H8.1532C8.26697 10.996 8.37609 11.0412 8.45654 11.1216C8.537 11.2021 8.5822 11.3112 8.5822 11.425C8.5822 11.5388 8.537 11.6479 8.45654 11.7283C8.37609 11.8088 8.26697 11.854 8.1532 11.854Z" fill="#272727"/>
<path d="M10.056 14H1.1C0.811937 14.0027 0.53453 13.8912 0.328409 13.6899C0.122288 13.4887 0.00421621 13.214 0 12.926V4.11098C0.00170678 3.73609 0.150766 3.37691 0.415 3.11098L2.84 0.683978C2.97102 0.552193 3.12685 0.447669 3.29848 0.376439C3.47012 0.305209 3.65417 0.268686 3.84 0.268978H10.053C10.341 0.266038 10.6184 0.377284 10.8245 0.578374C11.0307 0.779464 11.1488 1.05402 11.153 1.34198V12.927C11.149 13.2145 11.0314 13.4887 10.8259 13.6898C10.6203 13.8909 10.3435 14.0024 10.056 14ZM3.842 1.12698C3.76782 1.12603 3.6942 1.13997 3.62549 1.16797C3.55679 1.19597 3.49439 1.23745 3.442 1.28998L1.022 3.71598C0.969837 3.76864 0.928586 3.83108 0.900614 3.89972C0.872642 3.96837 0.8585 4.04186 0.859 4.11598V12.931C0.862862 12.9919 0.890698 13.0489 0.936422 13.0893C0.982146 13.1298 1.04204 13.1505 1.103 13.147H10.056C10.1166 13.1503 10.1761 13.1296 10.2216 13.0893C10.2671 13.0491 10.2949 12.9926 10.299 12.932V1.34198C10.2949 1.2814 10.2671 1.22487 10.2216 1.18463C10.1761 1.1444 10.1166 1.12368 10.056 1.12698H3.842Z" fill="#272727"/>
<path d="M3.21806 4.55596H1.71806C1.60429 4.55596 1.49517 4.51076 1.41471 4.4303C1.33426 4.34985 1.28906 4.24073 1.28906 4.12696C1.28906 4.01318 1.33426 3.90406 1.41471 3.82361C1.49517 3.74315 1.60429 3.69796 1.71806 3.69796H3.21806C3.2463 3.69796 3.27425 3.69239 3.30034 3.68159C3.32642 3.67078 3.35013 3.65495 3.37009 3.63498C3.39006 3.61502 3.40589 3.59132 3.4167 3.56523C3.4275 3.53915 3.43306 3.51119 3.43306 3.48296V1.98296C3.43306 1.86918 3.47826 1.76006 3.55871 1.67961C3.63917 1.59915 3.74828 1.55396 3.86206 1.55396C3.97584 1.55396 4.08496 1.59915 4.16541 1.67961C4.24586 1.76006 4.29106 1.86918 4.29106 1.98296V3.48296C4.2908 3.76745 4.17766 4.04022 3.9765 4.24139C3.77533 4.44256 3.50256 4.55569 3.21806 4.55596Z" fill="#272727"/>
</svg>
