<svg width="292" height="292" viewBox="0 0 292 292" fill="none" xmlns="http://www.w3.org/2000/svg">
<path d="M214.722 4.27781C213.369 2.91939 211.76 1.84209 209.988 1.10793C208.217 0.373762 206.318 -0.00276596 204.4 1.5296e-05H87.6C85.6824 -0.00276596 83.7832 0.373762 82.0116 1.10793C80.2401 1.84209 78.6313 2.91939 77.2778 4.27781L4.27781 77.2778C2.91939 78.6313 1.84209 80.2401 1.10793 82.0116C0.373762 83.7832 -0.00276596 85.6824 1.5296e-05 87.6V204.4C1.5296e-05 208.284 1.53301 211.992 4.27781 214.722L77.2778 287.722C78.6313 289.081 80.2401 290.158 82.0116 290.892C83.7832 291.626 85.6824 292.003 87.6 292H204.4C208.284 292 211.992 290.467 214.722 287.722L287.722 214.722C289.081 213.369 290.158 211.76 290.892 209.988C291.626 208.217 292.003 206.318 292 204.4V87.6C292.003 85.6824 291.626 83.7832 290.892 82.0116C290.158 80.2401 289.081 78.6313 287.722 77.2778L214.722 4.27781ZM160.6 219H131.4V189.8H160.6V219ZM160.6 160.6H131.4V73H160.6V160.6Z" fill="#FFC5CE"/>
<path d="M204.367 29.6332C203.217 28.4795 201.851 27.5645 200.346 26.941C198.842 26.3174 197.229 25.9977 195.6 26H96.4C94.7713 25.9977 93.1583 26.3174 91.6537 26.941C90.1491 27.5645 88.7828 28.4795 87.6332 29.6332L25.6332 91.6332C24.4795 92.7828 23.5645 94.1491 22.941 95.6537C22.3174 97.1583 21.9977 98.7713 22 100.4V199.6C22 202.898 23.302 206.048 25.6332 208.367L87.6332 270.367C88.7828 271.521 90.1491 272.436 91.6537 273.059C93.1583 273.683 94.7713 274.002 96.4 274H195.6C198.898 274 202.048 272.698 204.367 270.367L266.367 208.367C267.521 207.217 268.436 205.851 269.059 204.346C269.683 202.842 270.002 201.229 270 199.6V100.4C270.002 98.7713 269.683 97.1583 269.059 95.6537C268.436 94.1491 267.521 92.7828 266.367 91.6332L204.367 29.6332ZM158.4 212H133.6V187.2H158.4V212ZM158.4 162.4H133.6V88H158.4V162.4Z" fill="#EA3A3D"/>
</svg>
