<svg width="19" height="19" viewBox="0 0 19 19" fill="none" xmlns="http://www.w3.org/2000/svg">
<path d="M0.672763 0.000979387C0.554289 0.00119294 0.43797 0.032678 0.335563 0.0922524C0.233156 0.151827 0.14829 0.237379 0.0895426 0.340263C0.0307953 0.443147 0.000248592 0.559716 0.000989735 0.678188C0.00173088 0.796661 0.0337336 0.912839 0.0937635 1.01498L7.39376 10.751V18.141C7.39399 18.2554 7.42341 18.3678 7.47923 18.4676C7.53506 18.5675 7.61545 18.6514 7.71278 18.7115C7.81012 18.7716 7.92118 18.8058 8.03545 18.811C8.14971 18.8161 8.26341 18.792 8.36576 18.741L11.0508 17.401C11.1621 17.3452 11.2558 17.2595 11.3213 17.1536C11.3868 17.0476 11.4216 16.9255 11.4218 16.801V10.75L18.7218 1.01398C18.782 0.911769 18.814 0.795448 18.8147 0.676833C18.8154 0.558218 18.7847 0.441536 18.7256 0.338642C18.6666 0.235748 18.5814 0.150307 18.4787 0.0910008C18.376 0.0316945 18.2594 0.000635517 18.1408 0.000979387H0.672763ZM1.85076 1.34498H16.9638L10.1718 10.225C10.1104 10.3285 10.0783 10.4467 10.0788 10.567V16.382L8.73476 17.054V10.567C8.73473 10.4467 8.70263 10.3287 8.64176 10.225L1.85076 1.34498Z" fill="white"/>
</svg>
