<svg width="34" height="21" viewBox="0 0 34 21" fill="none" xmlns="http://www.w3.org/2000/svg">
<path d="M16.9999 0C16.0528 0 15.1269 0.280869 14.3393 0.807091C13.5518 1.33331 12.9379 2.08125 12.5755 2.95633C12.213 3.8314 12.1182 4.79431 12.303 5.72329C12.4877 6.65226 12.9438 7.50558 13.6136 8.17533C14.2834 8.84509 15.1367 9.30119 16.0656 9.48598C16.9946 9.67076 17.9575 9.57592 18.8326 9.21346C19.7077 8.85099 20.4556 8.23717 20.9818 7.44962C21.5081 6.66208 21.7889 5.73618 21.7889 4.789C21.7876 3.51929 21.2826 2.30195 20.3848 1.40413C19.487 0.506304 18.2697 0.00132359 16.9999 0ZM16.9999 8.209C16.3233 8.209 15.6619 8.00836 15.0993 7.63245C14.5367 7.25655 14.0983 6.72227 13.8393 6.09716C13.5804 5.47205 13.5127 4.78421 13.6447 4.1206C13.7767 3.45699 14.1025 2.84742 14.5809 2.36899C15.0593 1.89055 15.6689 1.56473 16.3325 1.43273C16.9961 1.30073 17.684 1.36848 18.3091 1.62741C18.9342 1.88634 19.4685 2.32482 19.8444 2.8874C20.2203 3.44998 20.4209 4.11139 20.4209 4.788C20.4199 5.69498 20.0591 6.56451 19.4178 7.20584C18.7764 7.84717 17.9069 8.20794 16.9999 8.209Z" fill="white"/>
<path d="M27.1769 5.26398C26.5003 5.26398 25.8388 5.46461 25.2763 5.84052C24.7137 6.21642 24.2752 6.7507 24.0163 7.37581C23.7574 8.00091 23.6896 8.68876 23.8216 9.35237C23.9536 10.016 24.2794 10.6256 24.7579 11.104C25.2363 11.5824 25.8458 11.9082 26.5095 12.0402C27.1731 12.1722 27.8609 12.1045 28.486 11.8456C29.1111 11.5866 29.6454 11.1482 30.0213 10.5856C30.3972 10.023 30.5979 9.36158 30.5979 8.68497C30.5968 7.77799 30.2361 6.90845 29.5947 6.26712C28.9534 5.62579 28.0839 5.26504 27.1769 5.26398ZM27.1769 10.737C26.771 10.737 26.3743 10.6166 26.0368 10.3911C25.6994 10.1657 25.4364 9.84518 25.2811 9.47023C25.1257 9.09528 25.0851 8.68269 25.1643 8.28464C25.2435 7.88659 25.4389 7.52097 25.7259 7.23399C26.0129 6.94702 26.3785 6.75157 26.7765 6.67239C27.1746 6.59322 27.5872 6.63386 27.9621 6.78917C28.3371 6.94448 28.6576 7.20749 28.883 7.54494C29.1085 7.88239 29.2289 8.27912 29.2289 8.68497C29.2281 9.22895 29.0116 9.75042 28.627 10.1351C28.2423 10.5197 27.7209 10.7362 27.1769 10.737Z" fill="white"/>
<path d="M6.91905 5.26404C6.24244 5.26404 5.58102 5.46467 5.01844 5.84058C4.45586 6.21648 4.01738 6.75076 3.75846 7.37587C3.49953 8.00098 3.43178 8.68882 3.56378 9.35243C3.69578 10.016 4.0216 10.6256 4.50004 11.104C4.97847 11.5825 5.58804 11.9083 6.25164 12.0403C6.91525 12.1723 7.6031 12.1046 8.22821 11.8456C8.85332 11.5867 9.3876 11.1482 9.76351 10.5856C10.1394 10.0231 10.34 9.36164 10.34 8.68503C10.3393 7.77797 9.97857 6.90828 9.33718 6.26689C8.6958 5.6255 7.82611 5.26483 6.91905 5.26404ZM6.91905 10.737C6.5132 10.737 6.11647 10.6167 5.77902 10.3912C5.44157 10.1657 5.17856 9.84525 5.02325 9.47029C4.86794 9.09534 4.8273 8.68275 4.90648 8.2847C4.98566 7.88665 5.18109 7.52103 5.46807 7.23405C5.75504 6.94708 6.12068 6.75163 6.51873 6.67245C6.91678 6.59328 7.32936 6.63392 7.70432 6.78923C8.07927 6.94454 8.39975 7.20755 8.62523 7.545C8.8507 7.88245 8.97105 8.27918 8.97105 8.68503C8.97026 9.22901 8.75381 9.75048 8.36916 10.1351C7.9845 10.5198 7.46303 10.7362 6.91905 10.737Z" fill="white"/>
<path d="M17.0009 10.422C14.6426 10.4236 12.3813 11.3611 10.7137 13.0287C9.04608 14.6964 8.10852 16.9577 8.10693 19.316C8.10693 19.4058 8.12462 19.4948 8.159 19.5778C8.19337 19.6607 8.24376 19.7361 8.30727 19.7997C8.37079 19.8632 8.44619 19.9136 8.52917 19.9479C8.61216 19.9823 8.70111 20 8.79093 20C8.88076 20 8.9697 19.9823 9.05269 19.9479C9.13568 19.9136 9.21108 19.8632 9.2746 19.7997C9.33811 19.7361 9.38849 19.6607 9.42287 19.5778C9.45724 19.4948 9.47493 19.4058 9.47493 19.316C9.47493 17.3201 10.2678 15.406 11.6791 13.9947C13.0904 12.5834 15.0045 11.7905 17.0004 11.7905C18.9963 11.7905 20.9105 12.5834 22.3218 13.9947C23.7331 15.406 24.5259 17.3201 24.5259 19.316C24.5259 19.4058 24.5436 19.4948 24.578 19.5778C24.6124 19.6607 24.6628 19.7361 24.7263 19.7997C24.7898 19.8632 24.8652 19.9136 24.9482 19.9479C25.0312 19.9823 25.1201 20 25.2099 20C25.2998 20 25.3887 19.9823 25.4717 19.9479C25.5547 19.9136 25.6301 19.8632 25.6936 19.7997C25.7571 19.7361 25.8075 19.6607 25.8419 19.5778C25.8762 19.4948 25.8939 19.4058 25.8939 19.316C25.8923 16.9578 24.9549 14.6967 23.2875 13.0291C21.6201 11.3615 19.3591 10.4239 17.0009 10.422Z" fill="white"/>
<path d="M27.176 13.159C26.0518 13.1586 24.9489 13.4661 23.987 14.048C23.9102 14.0946 23.8433 14.1559 23.7902 14.2284C23.737 14.3009 23.6987 14.3831 23.6773 14.4704C23.656 14.5577 23.652 14.6483 23.6657 14.7371C23.6794 14.8259 23.7104 14.9112 23.757 14.988C23.8036 15.0648 23.8649 15.1317 23.9374 15.1848C24.0099 15.238 24.0921 15.2763 24.1794 15.2977C24.2666 15.3191 24.3573 15.323 24.4461 15.3093C24.5349 15.2957 24.6202 15.2646 24.697 15.218C25.4236 14.7788 26.2539 14.5406 27.1029 14.5278C27.9519 14.515 28.789 14.7281 29.5285 15.1453C30.268 15.5624 30.8833 16.1687 31.3115 16.9019C31.7396 17.6351 31.9651 18.4689 31.965 19.318C31.965 19.4994 32.0371 19.6734 32.1653 19.8017C32.2936 19.9299 32.4676 20.002 32.649 20.002C32.8304 20.002 33.0044 19.9299 33.1327 19.8017C33.2609 19.6734 33.333 19.4994 33.333 19.318C33.3314 17.6854 32.6823 16.12 31.528 14.9654C30.3738 13.8108 28.8086 13.1611 27.176 13.159Z" fill="white"/>
<path d="M10.012 14.047C9.07792 13.4824 8.01058 13.1762 6.91925 13.1596C5.82792 13.1431 4.75179 13.4169 3.80105 13.9529C2.85031 14.489 2.05909 15.2681 1.5084 16.2105C0.957712 17.1528 0.667334 18.2246 0.666992 19.316C0.666992 19.4974 0.739056 19.6714 0.867331 19.7997C0.995606 19.9279 1.16958 20 1.35099 20C1.5324 20 1.70638 19.9279 1.83465 19.7997C1.96293 19.6714 2.03499 19.4974 2.03499 19.316C2.03528 18.4672 2.26105 17.6337 2.6892 16.9009C3.11736 16.168 3.73254 15.562 4.47178 15.1449C5.21103 14.7278 6.04781 14.5146 6.8965 14.5271C7.7452 14.5396 8.57534 14.7774 9.30199 15.216C9.37882 15.2626 9.46407 15.2936 9.55289 15.3073C9.6417 15.321 9.73234 15.317 9.81963 15.2957C9.90691 15.2743 9.98914 15.236 10.0616 15.1829C10.1341 15.1297 10.1954 15.0628 10.242 14.986C10.2886 14.9092 10.3196 14.8239 10.3333 14.7351C10.347 14.6463 10.343 14.5557 10.3217 14.4684C10.3003 14.3811 10.262 14.2989 10.2088 14.2264C10.1557 14.1539 10.0888 14.0926 10.012 14.046V14.047Z" fill="white"/>
</svg>
