<svg width="41" height="43" viewBox="0 0 41 43" fill="none" xmlns="http://www.w3.org/2000/svg">
<path d="M22.1922 30.2771C22.5678 30.6165 23.056 30.8043 23.5622 30.8041C23.8628 30.7993 24.1591 30.7311 24.4315 30.604C24.704 30.4768 24.9465 30.2935 25.1432 30.0661L31.7782 22.3741C32.1094 21.9945 32.2918 21.5078 32.2918 21.0041C32.2918 20.5003 32.1094 20.0137 31.7782 19.6341L25.1392 11.9411C24.7725 11.5339 24.2607 11.2869 23.7138 11.2531C23.1669 11.2193 22.6286 11.4015 22.2145 11.7604C21.8005 12.1193 21.5438 12.6263 21.4996 13.1724C21.4554 13.7186 21.6273 14.2603 21.9782 14.6811L25.6142 18.8961H12.2862C11.7352 18.9081 11.2108 19.1354 10.8254 19.5293C10.44 19.9232 10.2241 20.4525 10.2241 21.0036C10.2241 21.5547 10.44 22.0839 10.8254 22.4778C11.2108 22.8718 11.7352 23.0991 12.2862 23.1111H25.6172L21.9782 27.3271C21.792 27.5317 21.6493 27.772 21.5588 28.0335C21.4684 28.2949 21.432 28.5721 21.4521 28.848C21.4721 29.124 21.548 29.3929 21.6753 29.6386C21.8025 29.8843 21.9784 30.1015 22.1922 30.2771Z" fill="white"/>
<path d="M36.7502 14.5531C36.9701 15.0124 37.3568 15.3706 37.8317 15.5545C38.3065 15.7385 38.8337 15.7344 39.3056 15.5431C39.7775 15.3517 40.1587 14.9876 40.3714 14.5249C40.5841 14.0622 40.6123 13.5358 40.4502 13.0531C38.6079 8.54881 35.2584 4.8242 30.9742 2.51586C26.69 0.207514 21.7372 -0.541251 16.9621 0.397537C12.187 1.33633 7.88622 3.90438 4.79478 7.66279C1.70334 11.4212 0.0131836 16.1366 0.0131836 21.0031C0.0131836 25.8696 1.70334 30.585 4.79478 34.3434C7.88622 38.1018 12.187 40.6698 16.9621 41.6086C21.7372 42.5474 26.69 41.7987 30.9742 39.4903C35.2584 37.182 38.6079 33.4574 40.4502 28.9531C40.568 28.7069 40.6343 28.4392 40.6447 28.1664C40.6552 27.8936 40.6098 27.6216 40.5112 27.3671C40.4125 27.1126 40.2629 26.8809 40.0714 26.6864C39.8799 26.4919 39.6506 26.3387 39.3976 26.2361C39.1447 26.1336 38.8734 26.0839 38.6005 26.0901C38.3276 26.0963 38.0589 26.1584 37.8109 26.2724C37.5629 26.3864 37.3408 26.55 37.1584 26.753C36.976 26.9561 36.8371 27.1943 36.7502 27.4531C35.256 31.0968 32.5431 34.1088 29.0748 35.9744C25.6066 37.8401 21.5982 38.4437 17.7343 37.6823C13.8704 36.9208 10.3908 34.8415 7.88969 31.7994C5.38863 28.7573 4.02132 24.9413 4.02132 21.0031C4.02132 17.0649 5.38863 13.2488 7.88969 10.2068C10.3908 7.16472 13.8704 5.08536 17.7343 4.32389C21.5982 3.56242 25.6066 4.16608 29.0748 6.03175C32.5431 7.89741 35.256 10.9093 36.7502 14.5531Z" fill="white"/>
</svg>
