<svg width="32" height="34" viewBox="0 0 32 34" fill="none" xmlns="http://www.w3.org/2000/svg">
<path d="M14.8514 33.3019C13.456 33.3003 12.1183 32.7453 11.1316 31.7586C10.145 30.7719 9.58997 29.4342 9.58838 28.0389C9.59681 27.7654 9.71139 27.5058 9.90785 27.3153C10.1043 27.1248 10.3672 27.0183 10.6409 27.0183C10.9145 27.0183 11.1774 27.1248 11.3739 27.3153C11.5704 27.5058 11.6849 27.7654 11.6934 28.0389C11.6934 28.8764 12.0261 29.6797 12.6183 30.2719C13.2106 30.8642 14.0138 31.1969 14.8514 31.1969C15.6889 31.1969 16.4922 30.8642 17.0844 30.2719C17.6767 29.6797 18.0094 28.8764 18.0094 28.0389C18.0178 27.7654 18.1324 27.5058 18.3289 27.3153C18.5253 27.1248 18.7882 27.0183 19.0619 27.0183C19.3355 27.0183 19.5984 27.1248 19.7949 27.3153C19.9914 27.5058 20.1059 27.7654 20.1144 28.0389C20.1128 29.4342 19.5578 30.7719 18.5711 31.7586C17.5845 32.7453 16.2467 33.3003 14.8514 33.3019Z" fill="#003366" stroke="#003366" stroke-width="0.7"/>
<path d="M26.0613 29.0908H3.52627C3.03915 29.094 2.56285 28.9473 2.16198 28.6705C1.7611 28.3937 1.45507 28.0004 1.28539 27.5438C1.11571 27.0871 1.09061 26.5894 1.21349 26.118C1.33637 25.6466 1.60127 25.2245 1.97227 24.9088C2.00656 24.8789 2.04299 24.8514 2.08127 24.8268C3.07057 23.9731 3.86442 22.9164 4.40884 21.7286C4.95325 20.5407 5.23546 19.2495 5.23627 17.9428V14.1508C5.24791 11.6244 6.26077 9.20574 8.05282 7.42494C9.84486 5.64414 12.2699 4.64653 14.7963 4.65079C15.0213 4.64612 15.2464 4.65983 15.4693 4.69179C15.6021 4.71279 15.7294 4.75989 15.8439 4.83037C15.9584 4.90084 16.0578 4.99331 16.1364 5.10242C16.215 5.21152 16.2712 5.33512 16.3017 5.46606C16.3322 5.597 16.3365 5.7327 16.3144 5.86531C16.2922 5.99792 16.2439 6.12483 16.1724 6.2387C16.1009 6.35257 16.0076 6.45114 15.8977 6.52872C15.7879 6.60631 15.6638 6.66137 15.5326 6.69073C15.4014 6.7201 15.2657 6.72318 15.1333 6.6998C15.0214 6.68702 14.9087 6.68301 14.7963 6.6878C12.8111 6.68407 10.9055 7.46752 9.49697 8.86645C8.08848 10.2654 7.29206 12.1657 7.28227 14.1508V17.9388C7.2813 19.5612 6.92595 21.1638 6.24109 22.6346C5.55622 24.1054 4.55836 25.4088 3.31727 26.4538C3.29627 26.4698 3.27927 26.4848 3.25727 26.4998C3.20988 26.5598 3.18448 26.6343 3.18527 26.7108C3.18657 26.8006 3.22298 26.8864 3.28671 26.9498C3.35043 27.0131 3.43642 27.049 3.52627 27.0498H26.0613C26.1513 27.0493 26.2375 27.0135 26.3015 26.9501C26.3654 26.8867 26.402 26.8008 26.4033 26.7108C26.4045 26.6339 26.3783 26.5591 26.3293 26.4998C26.3083 26.4848 26.2913 26.4698 26.2703 26.4538C25.0291 25.4089 24.0311 24.1055 23.3463 22.6347C22.6614 21.1639 22.3061 19.5612 22.3053 17.9388V16.4588C22.3053 16.1871 22.4132 15.9265 22.6053 15.7344C22.7975 15.5422 23.0581 15.4343 23.3298 15.4343C23.6015 15.4343 23.8621 15.5422 24.0542 15.7344C24.2463 15.9265 24.3543 16.1871 24.3543 16.4588V17.9388C24.355 19.2462 24.6373 20.5381 25.1819 21.7266C25.7264 22.9152 26.5206 23.9725 27.5103 24.8268C27.547 24.8508 27.5821 24.8772 27.6153 24.9058C27.9861 25.2214 28.2508 25.6434 28.3735 26.1146C28.4963 26.5858 28.4711 27.0834 28.3015 27.5398C28.1318 27.9962 27.8258 28.3893 27.4251 28.6659C27.0243 28.9425 26.5482 29.0891 26.0613 29.0858V29.0908Z" fill="#003366" stroke="#003366" stroke-width="0.7"/>
<path d="M24.2411 14.4759C22.8533 14.4759 21.4966 14.0644 20.3427 13.2933C19.1887 12.5223 18.2894 11.4264 17.7583 10.1442C17.2272 8.862 17.0882 7.45111 17.359 6.08995C17.6297 4.72878 18.298 3.47847 19.2794 2.49713C20.2607 1.51578 21.511 0.84748 22.8722 0.576727C24.2333 0.305975 25.6442 0.444935 26.9264 0.976035C28.2086 1.50714 29.3045 2.40652 30.0755 3.56046C30.8466 4.7144 31.2581 6.07107 31.2581 7.4589C31.256 9.31927 30.516 11.1028 29.2006 12.4183C27.8851 13.7338 26.1015 14.4738 24.2411 14.4759ZM24.2411 2.5469C23.2696 2.5469 22.3199 2.83498 21.5121 3.37472C20.7044 3.91446 20.0748 4.68161 19.703 5.57916C19.3313 6.47671 19.234 7.46435 19.4235 8.41718C19.613 9.37002 20.0809 10.2453 20.7678 10.9322C21.4548 11.6192 22.33 12.087 23.2828 12.2765C24.2357 12.466 25.2233 12.3688 26.1209 11.997C27.0184 11.6252 27.7856 10.9956 28.3253 10.1879C28.865 9.38008 29.1531 8.4304 29.1531 7.4589C29.1521 6.15639 28.6342 4.90751 27.7133 3.9864C26.7924 3.0653 25.5436 2.54722 24.2411 2.5459V2.5469Z" fill="#003366" stroke="#003366" stroke-width="0.7"/>
</svg>
