<svg width="304" height="305" viewBox="0 0 304 305" fill="none" xmlns="http://www.w3.org/2000/svg">
<g filter="url(#filter0_d)">
<path opacity="0.298" d="M152 295.004C232.634 295.004 298 229.638 298 149.004C298 68.3705 232.634 3.00403 152 3.00403C71.3664 3.00403 6 68.3705 6 149.004C6 229.638 71.3664 295.004 152 295.004Z" fill="#FED403"/>
</g>
<path d="M152.5 270.814C219.499 270.814 273.814 216.5 273.814 149.5C273.814 82.5001 219.499 28.186 152.5 28.186C85.4997 28.186 31.1855 82.5001 31.1855 149.5C31.1855 216.5 85.4997 270.814 152.5 270.814Z" fill="#FED403"/>
<path d="M152.5 281C80 281 21 222.014 21 149.5C21 76.986 80 18 152.5 18C225 18 284 77 284 149.5C283.962 184.364 270.095 217.79 245.442 242.442C220.79 267.095 187.364 280.962 152.5 281ZM152.5 38.372C130.521 38.372 109.035 44.8895 90.7606 57.1004C72.4857 69.3113 58.2421 86.6672 49.8311 106.973C41.4201 127.279 39.2194 149.623 43.5073 171.18C47.7952 192.737 58.3791 212.538 73.9206 228.079C89.4622 243.621 109.263 254.205 130.82 258.493C152.377 262.781 174.721 260.58 195.027 252.169C215.333 243.758 232.689 229.514 244.9 211.239C257.11 192.965 263.628 171.479 263.628 149.5C263.595 120.037 251.877 91.7901 231.043 70.9566C210.21 50.1231 181.963 38.4046 152.5 38.372Z" fill="#FED403"/>
<path d="M152.426 83.884C159.641 83.884 165.49 78.3135 165.49 71.442C165.49 64.5705 159.641 59 152.426 59C145.211 59 139.362 64.5705 139.362 71.442C139.362 78.3135 145.211 83.884 152.426 83.884Z" fill="#4BC0FF"/>
<path d="M160.084 94.049H144.916C142.072 94.0489 139.31 94.9999 137.069 96.7507C134.828 98.5016 133.237 100.952 132.549 103.711L129.589 115.583C129.472 116.053 129.463 116.543 129.564 117.016C129.664 117.49 129.872 117.934 130.17 118.316C130.468 118.697 130.849 119.006 131.284 119.218C131.719 119.43 132.197 119.54 132.681 119.54H172.319C172.803 119.54 173.281 119.43 173.716 119.218C174.151 119.006 174.532 118.697 174.83 118.316C175.128 117.934 175.335 117.49 175.436 117.016C175.537 116.543 175.528 116.053 175.411 115.583L172.451 103.711C171.763 100.952 170.172 98.5016 167.931 96.7507C165.69 94.9999 162.928 94.0489 160.084 94.049Z" fill="#4BC0FF"/>
<path d="M165.245 71.745C165.245 68.3648 163.902 65.1231 161.512 62.7329C159.122 60.3428 155.88 59 152.5 59V84.491C154.174 84.491 155.831 84.1613 157.378 83.5207C158.924 82.8802 160.329 81.9413 161.512 80.7577C162.696 79.5741 163.635 78.169 164.275 76.6226C164.916 75.0762 165.245 73.4188 165.245 71.745Z" fill="#0592FD"/>
<path d="M175.411 115.582L172.451 103.71C171.763 100.951 170.172 98.501 167.931 96.7504C165.69 94.9997 162.928 94.0488 160.084 94.049H152.5V119.539H172.319C172.803 119.539 173.281 119.429 173.716 119.217C174.151 119.005 174.532 118.696 174.83 118.315C175.128 117.933 175.335 117.489 175.436 117.015C175.537 116.542 175.528 116.052 175.411 115.582Z" fill="#0592FD"/>
<path d="M88.7741 154.908H88.7631C87.4957 154.905 86.2815 154.398 85.3874 153.5C84.4933 152.602 83.9925 151.385 83.9951 150.118C83.991 141.144 85.7617 132.257 89.2053 123.969C92.6488 115.682 97.6973 108.157 104.06 101.828C104.956 100.932 106.172 100.428 107.44 100.428C108.707 100.428 109.923 100.932 110.819 101.828C111.715 102.724 112.219 103.94 112.219 105.207C112.219 106.475 111.715 107.691 110.819 108.587C105.344 114.033 101 120.507 98.0374 127.638C95.0744 134.769 93.5507 142.416 93.5541 150.138C93.5517 151.404 93.0471 152.617 92.1509 153.512C91.2547 154.406 90.0402 154.908 88.7741 154.908Z" fill="#466288"/>
<path d="M216.226 154.909C214.96 154.909 213.746 154.407 212.85 153.513C211.954 152.619 211.45 151.406 211.447 150.14C211.45 142.418 209.926 134.771 206.963 127.64C204 120.509 199.656 114.035 194.181 108.589C193.737 108.145 193.385 107.618 193.145 107.038C192.905 106.459 192.781 105.837 192.781 105.21C192.781 104.582 192.905 103.96 193.145 103.381C193.385 102.801 193.737 102.274 194.181 101.83C194.625 101.386 195.152 101.034 195.732 100.794C196.311 100.554 196.933 100.43 197.561 100.43C198.188 100.43 198.81 100.554 199.39 100.794C199.969 101.034 200.496 101.386 200.94 101.83C207.303 108.159 212.352 115.684 215.795 123.971C219.239 132.259 221.01 141.145 221.006 150.12C221.008 150.748 220.885 151.369 220.646 151.95C220.408 152.53 220.057 153.058 219.614 153.503C219.171 153.948 218.645 154.301 218.065 154.542C217.486 154.784 216.865 154.909 216.237 154.91H216.227L216.226 154.909Z" fill="#354A67"/>
<path d="M152.5 218.783C147.898 218.781 143.309 218.317 138.8 217.398C138.181 217.277 137.593 217.035 137.068 216.686C136.543 216.336 136.093 215.886 135.742 215.362C135.392 214.838 135.149 214.249 135.027 213.631C134.906 213.012 134.908 212.376 135.033 211.758C135.158 211.14 135.405 210.553 135.758 210.031C136.111 209.508 136.564 209.061 137.091 208.715C137.617 208.368 138.208 208.13 138.827 208.012C139.446 207.895 140.083 207.901 140.7 208.031C148.482 209.621 156.505 209.621 164.287 208.031C164.904 207.901 165.541 207.895 166.16 208.012C166.779 208.13 167.37 208.368 167.896 208.715C168.423 209.061 168.876 209.508 169.229 210.031C169.582 210.553 169.829 211.14 169.954 211.758C170.079 212.376 170.081 213.012 169.96 213.631C169.838 214.249 169.595 214.838 169.245 215.362C168.894 215.886 168.444 216.336 167.919 216.686C167.394 217.035 166.806 217.277 166.187 217.398C161.683 218.317 157.097 218.781 152.5 218.783Z" fill="#466288"/>
<path d="M145.123 172.617C144.495 172.618 143.874 172.494 143.294 172.254C142.714 172.014 142.187 171.661 141.744 171.217L133.19 162.663C132.294 161.767 131.79 160.551 131.79 159.284C131.79 158.016 132.294 156.8 133.19 155.904C134.086 155.008 135.302 154.504 136.569 154.504C137.837 154.504 139.053 155.008 139.949 155.904L145.123 161.078L165.053 141.148C165.497 140.704 166.024 140.352 166.603 140.112C167.183 139.872 167.805 139.748 168.432 139.748C169.06 139.748 169.681 139.872 170.261 140.112C170.841 140.352 171.368 140.704 171.812 141.148C172.256 141.592 172.608 142.119 172.848 142.699C173.088 143.278 173.212 143.9 173.212 144.528C173.212 145.155 173.088 145.777 172.848 146.356C172.608 146.936 172.256 147.463 171.812 147.907L148.503 171.217C148.06 171.662 147.533 172.014 146.953 172.254C146.373 172.495 145.751 172.618 145.123 172.617Z" fill="#466288"/>
<path d="M93.9374 187.089C100.976 187.089 106.682 181.383 106.682 174.344C106.682 167.305 100.976 161.599 93.9374 161.599C86.8985 161.599 81.1924 167.305 81.1924 174.344C81.1924 181.383 86.8985 187.089 93.9374 187.089Z" fill="#E25A6E"/>
<path d="M101.521 196.649H86.3532C83.5094 196.649 80.7472 197.6 78.5062 199.351C76.2652 201.102 74.6741 203.552 73.9862 206.311L71.0312 218.182C70.9141 218.652 70.9055 219.142 71.0061 219.615C71.1068 220.089 71.314 220.533 71.6121 220.915C71.9101 221.296 72.2912 221.605 72.7263 221.817C73.1614 222.029 73.6391 222.139 74.1232 222.139H113.756C114.24 222.139 114.718 222.029 115.153 221.817C115.588 221.605 115.969 221.296 116.267 220.915C116.565 220.533 116.773 220.089 116.873 219.615C116.974 219.142 116.965 218.652 116.848 218.182L113.888 206.31C113.2 203.551 111.609 201.101 109.368 199.35C107.127 197.6 104.365 196.649 101.521 196.649Z" fill="#E25A6E"/>
<path d="M106.682 174.344C106.682 170.964 105.34 167.722 102.95 165.332C100.559 162.942 97.3177 161.599 93.9375 161.599V187.089C97.3177 187.089 100.559 185.746 102.95 183.356C105.34 180.966 106.682 177.724 106.682 174.344Z" fill="#D62F44"/>
<path d="M116.848 218.182L113.888 206.31C113.2 203.551 111.609 201.101 109.368 199.35C107.127 197.6 104.365 196.649 101.521 196.649H93.9375V222.14H113.757C114.241 222.14 114.719 222.03 115.154 221.818C115.589 221.606 115.97 221.297 116.268 220.915C116.566 220.534 116.773 220.089 116.874 219.616C116.975 219.142 116.966 218.652 116.848 218.182Z" fill="#D62F44"/>
<path d="M211.063 187.089C218.102 187.089 223.808 181.383 223.808 174.344C223.808 167.305 218.102 161.599 211.063 161.599C204.024 161.599 198.318 167.305 198.318 174.344C198.318 181.383 204.024 187.089 211.063 187.089Z" fill="#A3CE29"/>
<path d="M218.647 196.649H203.479C200.635 196.649 197.873 197.6 195.632 199.351C193.391 201.102 191.8 203.552 191.112 206.311L188.152 218.183C188.035 218.653 188.027 219.143 188.127 219.616C188.228 220.09 188.435 220.534 188.733 220.916C189.031 221.297 189.412 221.606 189.847 221.818C190.283 222.03 190.76 222.14 191.244 222.14H230.882C231.366 222.14 231.844 222.03 232.279 221.818C232.714 221.606 233.095 221.297 233.393 220.916C233.692 220.534 233.899 220.09 233.999 219.616C234.1 219.143 234.091 218.653 233.974 218.183L231.014 206.311C230.326 203.552 228.735 201.102 226.494 199.351C224.253 197.6 221.491 196.649 218.647 196.649Z" fill="#A3CE29"/>
<path d="M223.808 174.344C223.808 170.965 222.466 167.724 220.077 165.334C217.688 162.944 214.448 161.6 211.068 161.599V187.089C214.448 187.088 217.688 185.744 220.077 183.354C222.466 180.964 223.808 177.723 223.808 174.344Z" fill="#8EBA05"/>
<path d="M233.974 218.182L231.014 206.31C230.326 203.551 228.735 201.101 226.494 199.35C224.253 197.6 221.491 196.649 218.647 196.649H211.068V222.14H230.887C231.371 222.139 231.848 222.029 232.283 221.816C232.718 221.604 233.098 221.295 233.396 220.913C233.693 220.532 233.9 220.088 234 219.614C234.1 219.141 234.092 218.651 233.974 218.182Z" fill="#8EBA05"/>
<path d="M171.811 141.147C171.367 140.703 170.84 140.351 170.26 140.111C169.681 139.871 169.059 139.747 168.431 139.747C167.804 139.747 167.182 139.871 166.603 140.111C166.023 140.351 165.496 140.703 165.052 141.147L152.5 153.7V167.218L171.811 147.907C172.255 147.463 172.607 146.936 172.847 146.356C173.087 145.777 173.211 145.155 173.211 144.527C173.211 143.9 173.087 143.278 172.847 142.698C172.607 142.119 172.255 141.592 171.811 141.148V141.147Z" fill="#354A67"/>
<path d="M169.929 211.763C169.804 211.148 169.559 210.563 169.209 210.043C168.858 209.522 168.408 209.076 167.884 208.729C167.361 208.383 166.774 208.142 166.158 208.023C165.542 207.903 164.908 207.906 164.293 208.031C160.412 208.822 156.462 209.222 152.501 209.223V218.783C157.103 218.781 161.692 218.317 166.201 217.398C167.442 217.145 168.532 216.409 169.232 215.352C169.931 214.296 170.181 213.005 169.929 211.763Z" fill="#354A67"/>
<defs>
<filter id="filter0_d" x="0" y="0.00402832" width="304" height="304" filterUnits="userSpaceOnUse" color-interpolation-filters="sRGB">
<feFlood flood-opacity="0" result="BackgroundImageFix"/>
<feColorMatrix in="SourceAlpha" type="matrix" values="0 0 0 0 0 0 0 0 0 0 0 0 0 0 0 0 0 0 127 0"/>
<feOffset dy="3"/>
<feGaussianBlur stdDeviation="3"/>
<feColorMatrix type="matrix" values="0 0 0 0 0 0 0 0 0 0 0 0 0 0 0 0 0 0 0.161 0"/>
<feBlend mode="normal" in2="BackgroundImageFix" result="effect1_dropShadow"/>
<feBlend mode="normal" in="SourceGraphic" in2="effect1_dropShadow" result="shape"/>
</filter>
</defs>
</svg>
