<svg width="40" height="41" viewBox="0 0 40 41" fill="none" xmlns="http://www.w3.org/2000/svg">
<path d="M8.02979 29.831V36.096C11.5978 36.253 10.5688 36.884 16.7768 39.675C17.5053 39.9681 18.2851 40.1122 19.0702 40.0988C19.8553 40.0854 20.6297 39.9147 21.3478 39.597L33.5478 35.23C33.9478 35.047 35.9478 33.96 35.1568 31.93C34.2338 29.77 31.8568 30.671 31.6568 30.736L25.2888 32.497" fill="#EAC092"/>
<path d="M15.5199 32.54L22.6109 34.787C23.2047 34.9561 23.8414 34.8825 24.381 34.5825C24.9206 34.2825 25.3191 33.7806 25.4889 33.187C25.642 32.5464 25.542 31.8715 25.2096 31.3029C24.8773 30.7343 24.3382 30.3159 23.7049 30.135L17.4139 28C16.8958 27.2892 16.2103 26.7171 15.4182 26.3346C14.6261 25.952 13.7518 25.7708 12.8729 25.807C11.9177 25.8947 10.9999 26.221 10.2037 26.7558C9.40744 27.2907 8.75833 28.017 8.31592 28.868V31.721" fill="#FEDBAB"/>
<path d="M12.719 32.446C12.6673 32.4458 12.6157 32.4404 12.565 32.43C12.5139 32.4201 12.464 32.405 12.416 32.385C12.3684 32.3651 12.3229 32.3407 12.28 32.312C12.1934 32.2548 12.1192 32.1806 12.062 32.094C12.0329 32.051 12.0084 32.0051 11.989 31.957C11.9689 31.9094 11.9538 31.8597 11.944 31.809C11.923 31.7074 11.923 31.6026 11.944 31.501C11.9539 31.4499 11.969 31.4 11.989 31.352C12.0483 31.2075 12.1497 31.0842 12.28 30.998C12.3229 30.9693 12.3684 30.9449 12.416 30.925C12.464 30.905 12.5139 30.8899 12.565 30.88C12.6667 30.8595 12.7714 30.8595 12.873 30.88C12.9238 30.8898 12.9734 30.9049 13.021 30.925C13.069 30.9447 13.1149 30.9692 13.158 30.998C13.2447 31.0552 13.3188 31.1293 13.376 31.216C13.4047 31.2589 13.4291 31.3044 13.449 31.352C13.4687 31.4001 13.4838 31.45 13.494 31.501C13.5151 31.6026 13.5151 31.7074 13.494 31.809C13.4838 31.8597 13.4688 31.9092 13.449 31.957C13.4293 32.005 13.4048 32.0509 13.376 32.094C13.3188 32.1806 13.2447 32.2548 13.158 32.312C13.1149 32.3408 13.069 32.3653 13.021 32.385C12.9734 32.4051 12.9238 32.4202 12.873 32.43C12.8223 32.4404 12.7707 32.4458 12.719 32.446Z" fill="black"/>
<path d="M8.48079 28.675H5.48779V37.164H8.48079V28.675Z" fill="#EAECF0"/>
<path d="M5.48804 28.675H0.790039V38.637H5.48804V28.675Z" fill="#3688C8"/>
<path d="M35.9 31.646L35.891 31.623C35.173 29.923 33.491 29.292 31.491 29.982L26.055 31.503C25.8764 30.9939 25.5851 30.5316 25.203 30.1507C24.8209 29.7698 24.3577 29.48 23.848 29.303L23.827 29.296L17.851 27.242C17.2585 26.4966 16.5008 25.8993 15.6377 25.4972C14.7746 25.095 13.8298 24.8992 12.878 24.925C11.8879 24.9941 10.9287 25.2988 10.0802 25.8136C9.23166 26.3285 8.51848 27.0387 8.00002 27.885H0.780016C0.676928 27.8856 0.574978 27.9066 0.479988 27.9467C0.384997 27.9867 0.298827 28.0451 0.226397 28.1184C0.153967 28.1918 0.0966955 28.2787 0.0578529 28.3742C0.0190103 28.4697 -0.000642678 28.5719 1.6026e-05 28.675V38.637C-0.000642678 38.7401 0.0190103 38.8423 0.0578529 38.9378C0.0966955 39.0333 0.153967 39.1202 0.226397 39.1935C0.298827 39.2669 0.384997 39.3253 0.479988 39.3653C0.574978 39.4054 0.676928 39.4264 0.780016 39.427H5.42002C5.5231 39.4264 5.62505 39.4054 5.72004 39.3653C5.81503 39.3253 5.90121 39.2669 5.97364 39.1935C6.04607 39.1202 6.10334 39.0333 6.14218 38.9378C6.18102 38.8423 6.20067 38.7401 6.20002 38.637V37.955H8.37702C8.4801 37.9543 8.58205 37.9334 8.67704 37.8933C8.77204 37.8533 8.85821 37.7949 8.93064 37.7215C9.00307 37.6482 9.06034 37.5613 9.09918 37.4658C9.13802 37.3703 9.15767 37.2681 9.15702 37.165V36.938C10.1858 37.0087 11.1738 37.3678 12.008 37.974C13.5241 38.8691 15.0892 39.6784 16.696 40.398L16.73 40.413C17.5301 40.727 18.3816 40.8894 19.241 40.892C20.1335 40.8947 21.0159 40.7033 21.827 40.331L33.844 35.975C33.865 35.967 33.886 35.959 33.907 35.949C34.7371 35.6364 35.4112 35.0102 35.784 34.2053C36.1568 33.4004 36.1985 32.4813 35.9 31.646ZM4.64302 37.846H1.56102V29.464H4.64002L4.64302 37.846ZM7.60002 36.374H6.20002V29.465H7.60002V36.374ZM33.287 34.498L21.275 38.853L21.24 38.867L21.209 38.881C20.5985 39.151 19.9402 39.296 19.2728 39.3075C18.6054 39.319 17.9424 39.1968 17.323 38.948C15.7696 38.2533 14.2568 37.471 12.792 36.605C11.723 35.8566 10.4652 35.4235 9.16202 35.355V28.991C9.53508 28.3069 10.0685 27.7235 10.7166 27.2908C11.3647 26.8582 12.1081 26.5892 12.883 26.507C13.62 26.4727 14.3541 26.6205 15.0204 26.9374C15.6867 27.2544 16.2646 27.7306 16.703 28.324C16.7977 28.4803 16.9442 28.5985 17.117 28.658L23.317 30.789C23.7573 30.9075 24.1351 31.1908 24.3721 31.5803C24.6091 31.9698 24.6871 32.4355 24.59 32.881C24.5365 33.075 24.4452 33.2565 24.3213 33.4151C24.1974 33.5737 24.0433 33.7062 23.868 33.805C23.6956 33.9027 23.5056 33.9653 23.3089 33.9891C23.1122 34.013 22.9127 33.9977 22.722 33.944L15.728 31.703C15.6299 31.6718 15.5265 31.6604 15.4239 31.6694C15.3213 31.6785 15.2216 31.7078 15.1304 31.7557C15.0393 31.8036 14.9585 31.8692 14.8929 31.9485C14.8272 32.0279 14.778 32.1195 14.748 32.218C14.6849 32.4169 14.7029 32.6327 14.798 32.8185C14.8931 33.0042 15.0577 33.1449 15.256 33.21L22.256 35.457L22.278 35.464C22.6672 35.5771 23.075 35.6109 23.4775 35.5635C23.8799 35.5161 24.2688 35.3884 24.621 35.188C24.9764 34.9879 25.2887 34.7195 25.54 34.3982C25.7912 34.0769 25.9765 33.7091 26.085 33.316C26.103 33.2493 26.119 33.1853 26.133 33.124L32 31.477C32.846 31.184 33.957 31.077 34.452 32.232C34.96 33.586 33.629 34.331 33.283 34.498H33.287Z" fill="black"/>
<path d="M18.9552 8.69799L11.9372 1.67999L3.13721 10.48L18.1742 25.514L26.4742 17.214" fill="#26CFAD"/>
<path d="M14.64 9.77399C13.922 9.82325 13.2337 10.0801 12.659 10.5132C12.0842 10.9463 11.6477 11.5372 11.4024 12.2138C11.1572 12.8904 11.1138 13.6237 11.2776 14.3245C11.4414 15.0253 11.8053 15.6635 12.325 16.1613C12.8448 16.6592 13.498 16.9953 14.2052 17.1288C14.9124 17.2623 15.6431 17.1875 16.3086 16.9134C16.9741 16.6393 17.5456 16.1778 17.9536 15.5849C18.3616 14.9921 18.5886 14.2935 18.607 13.574" fill="#FFD36C"/>
<path d="M31.686 13.167V6.897C28.118 6.74 29.147 6.109 22.939 3.318C22.2105 3.02492 21.4307 2.88083 20.6456 2.89423C19.8605 2.90762 19.086 3.07824 18.368 3.396L14.688 4.714L18.488 8.514" fill="#EAC092"/>
<path d="M3.13916 10.479L6.12216 7.49597C6.91223 8.28768 7.35594 9.36049 7.35594 10.479C7.35594 11.5975 6.91223 12.6703 6.12216 13.462L3.13916 10.479Z" fill="#00B192"/>
<path d="M15.1914 22.532C15.9831 21.7419 17.0559 21.2982 18.1744 21.2982C19.2929 21.2982 20.3657 21.7419 21.1574 22.532L18.1744 25.515L15.1914 22.532Z" fill="#00B192"/>
<path d="M8.95508 4.66299L11.9381 1.67999L14.9211 4.66299C14.1294 5.45306 13.0566 5.89677 11.9381 5.89677C10.8196 5.89677 9.74679 5.45306 8.95508 4.66299Z" fill="#00B192"/>
<path d="M23.009 15.272C22.735 16.0267 22.6817 16.8438 22.8554 17.6277C23.0292 18.4116 23.4228 19.1297 23.99 19.698L26.477 17.211" fill="#00B192"/>
<path d="M24.4829 10.436L17.3919 8.189C16.7981 8.01997 16.1615 8.09353 15.6218 8.39352C15.0822 8.69352 14.6837 9.19542 14.5139 9.789C14.3608 10.4296 14.4608 11.1045 14.7932 11.6731C15.1256 12.2418 15.6646 12.6601 16.2979 12.841L22.5919 14.977C23.11 15.6879 23.7955 16.2599 24.5876 16.6424C25.3797 17.025 26.254 17.2062 27.1329 17.17C28.0881 17.0823 29.0059 16.756 29.8021 16.2212C30.5984 15.6864 31.2475 14.9601 31.6899 14.109V11.26" fill="#FEDBAB"/>
<path d="M27.2839 12.113C27.2322 12.1128 27.1806 12.1074 27.1299 12.097C27.0793 12.0868 27.0297 12.0717 26.9819 12.052C26.934 12.0323 26.8881 12.0078 26.8449 11.979C26.7583 11.9218 26.6841 11.8476 26.6269 11.761C26.5981 11.7178 26.5737 11.672 26.5539 11.624C26.5338 11.5763 26.5188 11.5267 26.509 11.476C26.4879 11.3744 26.4879 11.2696 26.509 11.168C26.5189 11.1169 26.5339 11.067 26.5539 11.019C26.5738 10.9714 26.5983 10.9259 26.6269 10.883C26.6841 10.7963 26.7583 10.7222 26.8449 10.665C26.8881 10.6361 26.934 10.6117 26.9819 10.592C27.0296 10.5719 27.0792 10.5568 27.1299 10.547C27.2833 10.5162 27.4425 10.5319 27.5869 10.592C27.6345 10.6119 27.6801 10.6363 27.7229 10.665C27.8096 10.7221 27.8838 10.7963 27.9409 10.883C27.9699 10.9257 27.9943 10.9712 28.0139 11.019C28.0343 11.067 28.0497 11.1169 28.0599 11.168C28.0799 11.2697 28.0799 11.3743 28.0599 11.476C28.0498 11.5268 28.0344 11.5764 28.0139 11.624C27.9945 11.6721 27.9701 11.718 27.9409 11.761C27.8838 11.8476 27.8096 11.9218 27.7229 11.979C27.6801 12.0076 27.6345 12.0321 27.5869 12.052C27.5391 12.0715 27.4896 12.0866 27.4389 12.097C27.3879 12.1074 27.336 12.1128 27.2839 12.113Z" fill="black"/>
<path d="M34.515 5.82898H31.522V14.318H34.515V5.82898Z" fill="#EAECF0"/>
<path d="M39.2131 4.35602H34.5151V14.318H39.2131V4.35602Z" fill="#3688C8"/>
<path d="M39.2229 3.56699H34.5799C34.4767 3.56751 34.3746 3.58837 34.2795 3.62837C34.1844 3.66837 34.0982 3.72672 34.0256 3.80009C33.9531 3.87346 33.8957 3.96041 33.8568 4.05597C33.8179 4.15153 33.7982 4.25382 33.7989 4.35699V5.03899H31.6219C31.5187 5.03951 31.4167 5.06037 31.3215 5.10037C31.2264 5.14037 31.1402 5.19872 31.0676 5.27209C30.9951 5.34546 30.9377 5.43241 30.8988 5.52797C30.8599 5.62353 30.8402 5.72582 30.8409 5.82899V6.05599C29.8119 5.98492 28.8236 5.62592 27.9889 5.01999C26.4721 4.12517 24.9063 3.31623 23.2989 2.59699L23.2649 2.58199C22.4523 2.25483 21.5825 2.09346 20.7067 2.10737C19.8309 2.12128 18.9666 2.31019 18.1649 2.66299L15.0239 3.80199L12.3759 1.12199C12.3039 1.04931 12.2182 0.991607 12.1238 0.95223C12.0294 0.912853 11.9282 0.892578 11.8259 0.892578C11.7236 0.892578 11.6223 0.912853 11.5279 0.95223C11.4335 0.991607 11.3478 1.04931 11.2759 1.12199L2.58088 9.92199C2.4328 10.0701 2.34961 10.271 2.34961 10.4805C2.34961 10.69 2.4328 10.8908 2.58088 11.039L17.4349 26.073C17.5872 26.2061 17.7826 26.2794 17.9849 26.2794C18.1871 26.2794 18.3826 26.2061 18.5349 26.073L26.4729 18.04C26.6789 18.058 26.8939 18.068 27.1159 18.068C28.1055 17.9983 29.0643 17.6933 29.9123 17.1785C30.7604 16.6637 31.4734 15.9538 31.9919 15.108H39.2189C39.3221 15.1075 39.4241 15.0866 39.5192 15.0466C39.6143 15.0066 39.7006 14.9483 39.7731 14.8749C39.8457 14.8015 39.903 14.7146 39.9419 14.619C39.9809 14.5235 40.0005 14.4212 39.9999 14.318V4.35599C40.0009 4.14848 39.9198 3.94899 39.7742 3.80114C39.6286 3.65329 39.4304 3.5691 39.2229 3.56699ZM13.8039 10.894C13.8974 11.5313 14.1655 12.1302 14.5785 12.6244C14.9915 13.1186 15.5333 13.4888 16.1439 13.694L16.1649 13.701L17.7259 14.237C17.6078 14.778 17.3383 15.2743 16.9489 15.668C16.682 15.9388 16.364 16.1539 16.0133 16.3007C15.6625 16.4475 15.2861 16.5231 14.9059 16.5231C14.5257 16.5231 14.1492 16.4475 13.7985 16.3007C13.4478 16.1539 13.1297 15.9388 12.8629 15.668C12.3213 15.1161 12.018 14.3737 12.018 13.6005C12.018 12.8273 12.3213 12.0849 12.8629 11.533C13.131 11.2597 13.4509 11.0424 13.8039 10.894ZM15.3659 7.80899C14.8121 8.1198 14.3678 8.59409 14.0939 9.16699C13.2054 9.33404 12.3892 9.76882 11.7549 10.413C10.9207 11.2633 10.4534 12.4069 10.4534 13.598C10.4534 14.7891 10.9207 15.9327 11.7549 16.783C12.166 17.2001 12.6559 17.5312 13.1962 17.7573C13.7364 17.9833 14.3162 18.0997 14.9019 18.0997C15.4875 18.0997 16.0673 17.9833 16.6076 17.7573C17.1478 17.5312 17.6377 17.2001 18.0489 16.783C18.6083 16.2176 19.0079 15.5141 19.2069 14.744L21.8429 15.649C21.6972 16.3367 21.6955 17.0471 21.8378 17.7355C21.9801 18.4239 22.2634 19.0754 22.6699 19.649L20.8869 21.449C20.0444 20.8318 19.0272 20.4991 17.9829 20.4991C16.9385 20.4991 15.9214 20.8318 15.0789 21.449L7.13488 13.409C7.74552 12.5506 8.07364 11.5234 8.07364 10.47C8.07364 9.41659 7.74552 8.38934 7.13488 7.53099L8.91588 5.73099C9.75844 6.34839 10.7758 6.68124 11.8204 6.68124C12.8649 6.68124 13.8823 6.34839 14.7249 5.73099L16.4139 7.43999C16.0449 7.49794 15.6897 7.62301 15.3659 7.80899ZM23.7989 18.515C23.4978 18.0176 23.3259 17.4528 23.2989 16.872C23.7232 17.1821 24.1861 17.4355 24.6759 17.626L23.7989 18.515ZM11.8239 2.79799L13.6039 4.59799C13.0698 4.93011 12.4533 5.10612 11.8244 5.10612C11.1954 5.10612 10.579 4.93011 10.0449 4.59799L11.8239 2.79799ZM6.01288 8.67799C6.34108 9.22103 6.51456 9.84347 6.51456 10.478C6.51456 11.1125 6.34108 11.7349 6.01288 12.278L4.23288 10.478L6.01288 8.67799ZM17.9869 24.397L16.2079 22.597C16.7417 22.2645 17.358 22.0883 17.9869 22.0883C18.6158 22.0883 19.2321 22.2645 19.7659 22.597L17.9869 24.397ZM27.1189 16.488C26.8462 16.4885 26.5738 16.4691 26.3039 16.43C25.1706 16.2865 24.1355 15.7139 23.4119 14.83C23.3959 14.806 23.3279 14.716 23.3179 14.702C23.2245 14.5321 23.0712 14.403 22.8879 14.34L16.6799 12.208C16.2397 12.0897 15.8618 11.8066 15.6246 11.4173C15.3874 11.028 15.3091 10.5624 15.4059 10.117C15.4597 9.92352 15.5512 9.74257 15.6751 9.58453C15.799 9.42648 15.9529 9.29445 16.1279 9.19599C16.3003 9.09828 16.4903 9.03569 16.687 9.01183C16.8837 8.98797 17.0831 9.00332 17.2739 9.05699L24.2739 11.3C24.372 11.331 24.4754 11.3423 24.5779 11.3332C24.6804 11.3241 24.7802 11.2948 24.8713 11.2469C24.9624 11.199 25.0431 11.1335 25.1088 11.0542C25.1745 10.9749 25.2238 10.8834 25.2539 10.785C25.317 10.5861 25.299 10.3703 25.2039 10.1845C25.1088 9.99876 24.9442 9.85806 24.7459 9.79299L19.1759 8.00299L19.1269 7.95399L16.2459 5.03699L18.7219 4.13699L18.7489 4.12699H18.7569L18.7879 4.11299C19.3986 3.84272 20.0573 3.69755 20.7251 3.68604C21.3929 3.67453 22.0562 3.79692 22.6759 4.04599C24.2299 4.74069 25.7434 5.52294 27.2089 6.38899C28.2787 7.13746 29.5371 7.57056 30.8409 7.63899V14.003C30.4677 14.6873 29.9341 15.2709 29.2858 15.7038C28.6376 16.1366 27.894 16.4057 27.1189 16.488ZM32.4029 6.61899H33.8029V13.528H32.4029V6.61899ZM38.4419 13.528H35.3609V5.14699H38.4419V13.528Z" fill="black"/>
</svg>
