<svg width="304" height="305" viewBox="0 0 304 305" fill="none" xmlns="http://www.w3.org/2000/svg">
<g filter="url(#filter0_d)">
<path opacity="0.298" d="M152 295.004C232.634 295.004 298 229.638 298 149.004C298 68.3705 232.634 3.00403 152 3.00403C71.3664 3.00403 6 68.3705 6 149.004C6 229.638 71.3664 295.004 152 295.004Z" fill="#FED403"/>
</g>
<path d="M152.5 270.814C219.5 270.814 273.814 216.5 273.814 149.5C273.814 82.5001 219.5 28.186 152.5 28.186C85.5002 28.186 31.186 82.5001 31.186 149.5C31.186 216.5 85.5002 270.814 152.5 270.814Z" fill="#FED403"/>
<path d="M152.5 281C80 281 21 222.014 21 149.5C21 76.986 80 18 152.5 18C225 18 284 77 284 149.5C283.962 184.364 270.095 217.79 245.442 242.442C220.79 267.095 187.364 280.962 152.5 281ZM152.5 38.372C130.521 38.372 109.035 44.8895 90.7606 57.1004C72.4857 69.3113 58.2421 86.6672 49.8311 106.973C41.4201 127.279 39.2194 149.623 43.5073 171.18C47.7952 192.737 58.3791 212.538 73.9206 228.079C89.4622 243.621 109.263 254.205 130.82 258.493C152.377 262.781 174.721 260.58 195.027 252.169C215.333 243.758 232.689 229.514 244.9 211.239C257.11 192.965 263.628 171.479 263.628 149.5C263.595 120.037 251.877 91.7901 231.043 70.9566C210.21 50.1231 181.963 38.4046 152.5 38.372Z" fill="#FED403"/>
<path d="M120.751 228.486H89.769V217.557C89.769 216.801 89.918 216.052 90.2074 215.354C90.4967 214.655 90.9209 214.02 91.4556 213.486C91.9903 212.951 92.625 212.527 93.3236 212.238C94.0222 211.949 94.7709 211.8 95.527 211.8H114.994C116.521 211.8 117.985 212.407 119.065 213.486C120.145 214.566 120.751 216.03 120.751 217.557V228.486Z" fill="#A7C7D3"/>
<path d="M151.734 228.485H120.755V203.265C120.755 201.738 121.361 200.274 122.441 199.194C123.521 198.115 124.985 197.508 126.512 197.508H145.98C147.507 197.508 148.971 198.115 150.051 199.194C151.13 200.274 151.737 201.738 151.737 203.265L151.734 228.485Z" fill="#89B4C9"/>
<path d="M182.718 228.486H151.735V187.911C151.735 186.384 152.341 184.92 153.421 183.84C154.501 182.761 155.965 182.154 157.492 182.154H176.962C178.489 182.154 179.953 182.761 181.032 183.84C182.112 184.92 182.719 186.384 182.719 187.911L182.718 228.486Z" fill="#6C96B3"/>
<path d="M213.7 228.486H182.718V164.622C182.718 163.095 183.325 161.631 184.404 160.551C185.484 159.472 186.948 158.865 188.475 158.865H207.942C209.469 158.865 210.933 159.472 212.013 160.551C213.092 161.631 213.699 163.095 213.699 164.622L213.7 228.486Z" fill="#618AAA"/>
<path d="M191.127 93.636H222.291C222.504 93.6358 222.711 93.5708 222.886 93.4497C223.061 93.3286 223.195 93.1571 223.27 92.958C223.345 92.7589 223.358 92.5417 223.307 92.3352C223.255 92.1287 223.143 91.9428 222.983 91.802L214.883 84.675C214.771 84.5767 214.682 84.4557 214.621 84.3202C214.56 84.1847 214.528 84.0377 214.528 83.889C214.528 83.7403 214.56 83.5934 214.621 83.4578C214.682 83.3223 214.771 83.2014 214.883 83.103L222.983 75.975C223.143 75.8345 223.256 75.6485 223.307 75.4421C223.359 75.2356 223.346 75.0183 223.271 74.8192C223.196 74.6202 223.062 74.4487 222.887 74.3277C222.712 74.2067 222.504 74.142 222.291 74.142H191.127V93.636Z" fill="#FDB659"/>
<path d="M193.609 102.754L159.851 121.086C156.839 122.721 156.016 125.597 154.964 129.3L148.251 153.038L164.702 146.297L171.088 126.997L188.077 116.675C190.387 115.272 192.177 113.153 193.175 110.641C194.173 108.129 194.326 105.36 193.609 102.754Z" fill="#83D9FF"/>
<path d="M193.609 102.754L189.714 104.868C189.383 106.566 188.701 108.176 187.711 109.595C186.722 111.014 185.447 112.211 183.969 113.109L168.49 122.509C167.515 123.101 166.783 124.021 166.425 125.104L164.215 131.786C163.08 135.218 161.215 138.364 158.749 141.007C156.283 143.65 153.274 145.728 149.929 147.099L148.25 153.036L164.701 146.294L171.087 126.994L188.076 116.672C190.385 115.268 192.175 113.151 193.173 110.639C194.171 108.128 194.324 105.36 193.609 102.754Z" fill="#5FC9ED"/>
<path d="M164.702 146.298L174.425 157.787C176.035 159.92 177.437 161.42 177.147 163.767L174.872 182.144H168.939L167.388 166.344C167.342 165.875 167.17 165.427 166.892 165.046C166.614 164.666 166.239 164.367 165.806 164.18L148.25 153.04L164.702 146.298Z" fill="#38627C"/>
<path d="M148.251 153.04L147.302 170.459C147.241 171.903 147.444 172.88 146.879 173.959L135.679 197.512H141.973L158.811 175.148C159.796 174.002 159.911 172.448 160.24 171.016L164.704 146.298L148.251 153.04Z" fill="#4F7693"/>
<path d="M163.495 106.513L166.256 111.902C166.564 112.504 166.751 113.161 166.806 113.836C166.861 114.511 166.782 115.189 166.574 115.833C166.366 116.477 166.034 117.074 165.595 117.59C165.157 118.105 164.621 118.529 164.019 118.838L161.885 119.931C160.669 120.554 159.255 120.668 157.955 120.249C156.654 119.829 155.574 118.91 154.951 117.694L152.19 112.305C151.881 111.703 151.694 111.046 151.64 110.371C151.585 109.696 151.664 109.018 151.872 108.374C152.08 107.73 152.412 107.133 152.85 106.617C153.289 106.102 153.825 105.678 154.427 105.369L156.561 104.276C157.777 103.653 159.191 103.539 160.491 103.958C161.792 104.378 162.872 105.297 163.495 106.513Z" fill="#FECBAA"/>
<path d="M224.559 90.007L217.605 83.883L224.559 77.761C225.082 77.3 225.453 76.6906 225.621 76.0139C225.789 75.3372 225.748 74.6252 225.501 73.9727C225.255 73.3203 224.816 72.7583 224.243 72.3616C223.669 71.9649 222.988 71.7523 222.291 71.752H193.513V70.515C193.513 69.8825 193.262 69.2758 192.814 68.8286C192.367 68.3813 191.76 68.13 191.128 68.13C190.495 68.13 189.889 68.3813 189.441 68.8286C188.994 69.2758 188.743 69.8825 188.743 70.515V102.683L169.153 113.32C169.043 112.446 168.781 111.598 168.378 110.814L165.619 105.43C164.707 103.651 163.126 102.307 161.224 101.693C159.322 101.078 157.253 101.244 155.473 102.153L153.339 103.246C152.458 103.697 151.674 104.317 151.033 105.071C150.391 105.825 149.905 106.698 149.601 107.64C149.297 108.583 149.181 109.575 149.261 110.562C149.341 111.549 149.615 112.51 150.066 113.391L152.826 118.781C153.447 119.993 154.387 121.012 155.544 121.73C154.176 123.844 153.202 126.189 152.668 128.65L152.154 130.47C152.069 130.771 152.043 131.087 152.08 131.398C152.117 131.709 152.214 132.01 152.367 132.283C152.52 132.557 152.725 132.797 152.971 132.991C153.217 133.185 153.498 133.329 153.8 133.414C154.011 133.475 154.229 133.505 154.449 133.505C154.968 133.505 155.474 133.335 155.888 133.021C156.302 132.708 156.603 132.268 156.744 131.768L157.258 129.952C158.303 126.266 158.945 124.291 160.989 123.181L164.653 121.191L165.105 120.96C165.255 120.883 165.396 120.796 165.538 120.71L191.653 106.53C191.571 108.171 191.089 109.767 190.25 111.179C189.411 112.592 188.24 113.778 186.838 114.635L169.856 124.954C169.836 124.965 169.816 124.976 169.798 124.989L164.512 128.2C163.987 128.518 163.606 129.026 163.446 129.618C163.286 130.211 163.361 130.842 163.655 131.38C163.948 131.919 164.438 132.324 165.022 132.511C165.606 132.698 166.24 132.652 166.792 132.384L162.782 144.507L159.851 145.707L151.88 148.974L154.18 140.854C154.342 140.248 154.259 139.603 153.95 139.058C153.64 138.513 153.128 138.112 152.525 137.941C151.922 137.77 151.276 137.844 150.726 138.146C150.177 138.447 149.768 138.953 149.589 139.554L145.955 152.391C145.906 152.56 145.878 152.734 145.869 152.91L144.919 170.357C144.994 171.22 144.928 172.089 144.724 172.93L134.173 195.122H126.51C124.351 195.124 122.281 195.983 120.754 197.509C119.227 199.036 118.368 201.106 118.366 203.265V210.15C117.308 209.665 116.158 209.415 114.994 209.416H95.5269C93.3681 209.418 91.2983 210.277 89.7717 211.803C88.245 213.329 87.3863 215.399 87.3839 217.558V226.1H81.6579C81.0254 226.1 80.4188 226.351 79.9715 226.799C79.5242 227.246 79.2729 227.852 79.2729 228.485C79.2729 229.118 79.5242 229.724 79.9715 230.171C80.4188 230.619 81.0254 230.87 81.6579 230.87H222.288C222.92 230.87 223.527 230.619 223.974 230.171C224.422 229.724 224.673 229.118 224.673 228.485C224.673 227.852 224.422 227.246 223.974 226.799C223.527 226.351 222.92 226.1 222.288 226.1H216.088V164.622C216.085 162.463 215.227 160.394 213.7 158.868C212.174 157.341 210.105 156.483 207.946 156.48H193.513V114.869C194.85 113.063 195.76 110.978 196.176 108.77C196.591 106.563 196.502 104.289 195.913 102.121C195.77 101.601 195.455 101.144 195.019 100.826C194.583 100.508 194.052 100.348 193.513 100.37V96.017H222.29C222.987 96.0171 223.669 95.8048 224.242 95.4082C224.816 95.0117 225.256 94.4497 225.502 93.7972C225.749 93.1447 225.791 92.4325 225.622 91.7556C225.454 91.0787 225.083 90.4691 224.56 90.008L224.559 90.007ZM154.142 109.107C154.252 108.761 154.431 108.44 154.666 108.162C154.902 107.885 155.19 107.658 155.514 107.493L157.648 106.4C158.301 106.065 159.06 106.004 159.758 106.229C160.457 106.454 161.037 106.947 161.372 107.6L164.133 112.99C164.44 113.593 164.517 114.287 164.347 114.942C164.178 115.597 163.775 116.168 163.214 116.546L162.437 116.967L160.797 117.808C160.144 118.142 159.385 118.203 158.687 117.978C157.989 117.753 157.408 117.26 157.073 116.608L154.312 111.219C154.145 110.896 154.044 110.542 154.015 110.18C153.986 109.817 154.029 109.452 154.142 109.106V109.107ZM149.349 195.857C148.521 195.478 147.636 195.242 146.73 195.157L149.349 191.679V195.857ZM160.673 176.637C161.608 175.386 162.201 173.913 162.393 172.363C162.458 172.055 163.635 165.626 163.635 165.626C163.635 165.626 164.749 166.32 164.865 166.37C164.906 166.389 164.941 166.418 164.967 166.455C164.993 166.491 165.008 166.534 165.012 166.579L166.312 179.769H158.317L160.673 176.637ZM174.773 163.472L172.759 179.757H171.103L169.761 166.112C169.677 165.255 169.375 164.435 168.883 163.728C168.391 163.022 167.726 162.454 166.951 162.079L164.551 160.558L166.151 151.702C166.151 151.702 172.883 159.702 173.039 159.902C174.431 161.714 174.908 162.439 174.779 163.472H174.773ZM149.016 175.016C149.494 173.59 149.72 172.092 149.684 170.588L150.551 154.675L161.583 150.154L159.573 161.262C159.567 161.292 159.561 161.323 159.557 161.353L157.898 170.537C157.763 171.649 157.424 172.726 156.898 173.714L140.786 195.122H139.458L149.016 175.016ZM92.1549 217.557C92.156 216.663 92.5116 215.806 93.1438 215.174C93.776 214.542 94.6331 214.187 95.5269 214.186H114.994C115.888 214.187 116.745 214.542 117.377 215.174C118.01 215.806 118.366 216.663 118.367 217.557V226.101H92.1549V217.557ZM123.137 217.557V203.265C123.138 202.371 123.494 201.514 124.126 200.881C124.758 200.249 125.616 199.894 126.51 199.893H145.973C146.867 199.894 147.724 200.249 148.356 200.882C148.989 201.514 149.344 202.371 149.345 203.265V226.1H123.138V217.556L123.137 217.557ZM211.315 164.622V226.1H185.103V211.8C185.103 211.167 184.852 210.56 184.404 210.113C183.957 209.665 183.35 209.414 182.717 209.414C182.084 209.414 181.477 209.665 181.03 210.113C180.582 210.56 180.331 211.167 180.331 211.8V226.1H154.12V187.91C154.121 187.016 154.477 186.159 155.109 185.527C155.741 184.895 156.598 184.54 157.492 184.539H176.959C177.853 184.54 178.71 184.895 179.342 185.527C179.974 186.159 180.33 187.016 180.331 187.91V199.867C180.331 200.5 180.582 201.106 181.03 201.553C181.477 202.001 182.083 202.252 182.716 202.252C183.348 202.252 183.955 202.001 184.402 201.553C184.85 201.106 185.101 200.5 185.101 199.867V164.622C185.102 163.728 185.458 162.871 186.09 162.239C186.722 161.607 187.579 161.251 188.473 161.25H207.939C208.834 161.25 209.691 161.605 210.324 162.238C210.957 162.87 211.314 163.727 211.315 164.622ZM188.473 156.479C186.314 156.481 184.245 157.34 182.718 158.866C181.191 160.393 180.333 162.462 180.33 164.621V180.501C179.458 180.102 178.521 179.862 177.565 179.792L179.513 164.06C179.895 160.993 178.331 158.96 176.819 156.994C176.659 156.785 167.388 145.777 167.388 145.777L173.073 128.58L188.74 119.062V156.479H188.473ZM193.51 91.245V76.523H218.743L213.308 81.308C212.942 81.6301 212.649 82.0265 212.448 82.4707C212.247 82.915 212.143 83.397 212.143 83.8845C212.143 84.3721 212.247 84.854 212.448 85.2983C212.649 85.7425 212.942 86.1389 213.308 86.461L218.743 91.246H193.513L193.51 91.245Z" fill="black"/>
<defs>
<filter id="filter0_d" x="0" y="0.00402832" width="304" height="304" filterUnits="userSpaceOnUse" color-interpolation-filters="sRGB">
<feFlood flood-opacity="0" result="BackgroundImageFix"/>
<feColorMatrix in="SourceAlpha" type="matrix" values="0 0 0 0 0 0 0 0 0 0 0 0 0 0 0 0 0 0 127 0"/>
<feOffset dy="3"/>
<feGaussianBlur stdDeviation="3"/>
<feColorMatrix type="matrix" values="0 0 0 0 0 0 0 0 0 0 0 0 0 0 0 0 0 0 0.161 0"/>
<feBlend mode="normal" in2="BackgroundImageFix" result="effect1_dropShadow"/>
<feBlend mode="normal" in="SourceGraphic" in2="effect1_dropShadow" result="shape"/>
</filter>
</defs>
</svg>
