<svg width="41" height="40" viewBox="0 0 41 40" fill="none" xmlns="http://www.w3.org/2000/svg">
<path d="M37.143 9.7C38.9268 12.8466 39.9081 16.3841 40 20C40 23.9556 38.827 27.8224 36.6294 31.1114C34.4318 34.4004 31.3082 36.9638 27.6537 38.4776C23.9992 39.9913 19.9778 40.3874 16.0982 39.6157C12.2186 38.844 8.65492 36.9392 5.85787 34.1421C3.06082 31.3451 1.15601 27.7814 0.384303 23.9018C-0.387401 20.0222 0.00866568 16.0009 1.52242 12.3463C3.03617 8.69181 5.59962 5.56824 8.8886 3.37061C12.1776 1.17298 16.0444 0 20 0C23.753 0.0259461 27.4272 1.08014 30.623 3.048C30.623 3.048 35.344 6.286 37.143 9.696V9.7Z" fill="#FF405C"/>
<path d="M39.9998 20C39.9006 16.3711 38.8811 12.8269 37.0368 9.7C35.1708 6.29 30.2748 3.052 30.2748 3.052C26.9381 1.07641 23.1364 0.0231202 19.2588 0V40C30.7138 40 39.9998 31.046 39.9998 20Z" fill="#C1126B"/>
<path d="M31.3802 14.352C32.608 16.8254 32.9962 19.6316 32.4861 22.3454C31.9759 25.0593 30.5951 27.5329 28.5529 29.3915C26.5107 31.2502 23.9183 32.3925 21.1685 32.6456C18.4188 32.8986 15.6615 32.2486 13.3143 30.7939C10.9672 29.3392 9.15813 27.1592 8.16122 24.584C7.1643 22.0089 7.03385 19.179 7.78963 16.5231C8.54542 13.8671 10.1463 11.5299 12.3496 9.86543C14.553 8.20098 17.2388 7.30001 20.0002 7.29903C22.0734 7.26372 24.1199 7.77044 25.9372 8.76903C25.9372 8.76903 29.7952 10.973 31.3802 14.352Z" fill="#FFF4F4"/>
<path d="M33.087 20C33.0818 18.0321 32.6015 16.0945 31.687 14.352C30.01 10.973 25.927 8.76901 25.927 8.76901C23.987 7.76655 21.8284 7.26144 19.645 7.29901V32.699C27.069 32.701 33.087 27.011 33.087 20Z" fill="#EEE1DC"/>
<path d="M19.9999 26.328C23.4947 26.328 26.3279 23.4949 26.3279 20C26.3279 16.5051 23.4947 13.672 19.9999 13.672C16.505 13.672 13.6719 16.5051 13.6719 20C13.6719 23.4949 16.505 26.328 19.9999 26.328Z" fill="#FF405C"/>
<path d="M26.1952 20C26.1955 19.1688 26.032 18.3457 25.7141 17.5778C25.3962 16.8098 24.9301 16.1119 24.3425 15.5241C23.7548 14.9363 23.0572 14.47 22.2893 14.1519C21.5214 13.8337 20.6984 13.67 19.8672 13.67V26.325C21.545 26.325 23.1541 25.6587 24.3407 24.4726C25.5273 23.2865 26.1944 21.6778 26.1952 20Z" fill="#C1126B"/>
<path d="M19.0028 22.425C18.7497 22.4246 18.5024 22.3492 18.2921 22.2082C18.0819 22.0672 17.9183 21.867 17.8219 21.6329C17.7255 21.3988 17.7008 21.1414 17.7508 20.8933C17.8008 20.6452 17.9233 20.4174 18.1028 20.239L33.8818 4.56298C33.9989 4.43603 34.1405 4.33411 34.2981 4.26337C34.4557 4.19264 34.6259 4.15454 34.7986 4.1514C34.9713 4.14825 35.1428 4.18011 35.3029 4.24506C35.4629 4.31001 35.6082 4.4067 35.7298 4.5293C35.8515 4.65191 35.947 4.79788 36.0107 4.95842C36.0744 5.11896 36.105 5.29073 36.1005 5.46339C36.096 5.63605 36.0566 5.80602 35.9846 5.96303C35.9127 6.12005 35.8097 6.26086 35.6818 6.37698L19.9038 22.052C19.6648 22.2908 19.3407 22.4249 19.0028 22.425Z" fill="#00337A"/>
<path d="M35.6551 3.93698L34.4901 0.572977C34.445 0.446046 34.3685 0.332572 34.2678 0.243081C34.1671 0.15359 34.0454 0.0909796 33.9141 0.0610578C33.7827 0.031136 33.6459 0.0348716 33.5164 0.0719183C33.3869 0.108965 33.2688 0.178123 33.1731 0.272977L26.5611 6.88498C26.467 6.97954 26.398 7.09614 26.3605 7.22416C26.3229 7.35218 26.318 7.48756 26.3461 7.61798L27.3171 12.086C27.3486 12.2288 27.4187 12.3603 27.5197 12.4661C27.6208 12.5718 27.7489 12.6479 27.8901 12.686L32.4811 13.918C32.6164 13.9541 32.7588 13.9541 32.8941 13.918C33.0294 13.8818 33.1529 13.8108 33.2521 13.712L39.7661 7.19398C39.8585 7.10184 39.9269 6.98851 39.9654 6.86387C40.004 6.73923 40.0114 6.60706 39.9872 6.47887C39.9629 6.35069 39.9077 6.23038 39.8263 6.12844C39.7449 6.02649 39.6397 5.946 39.5201 5.89398L36.0901 4.40198C35.9891 4.35782 35.8984 4.29328 35.8235 4.2124C35.7487 4.13153 35.6913 4.03605 35.6551 3.93198V3.93698Z" fill="#00AEEE"/>
<path d="M35.689 4.56999L35.659 4.54199L18.126 22.075C18.367 22.3034 18.6875 22.4288 19.0194 22.4247C19.3514 22.4206 19.6687 22.2872 19.904 22.053L35.683 6.377C35.9231 6.138 36.0586 5.81351 36.0597 5.47474C36.0608 5.13596 35.9275 4.81057 35.689 4.56999Z" fill="#002659"/>
<path d="M39.5178 5.90102L36.0878 4.40902C36.022 4.37977 35.9604 4.34175 35.9048 4.29602L27.6348 12.566C27.711 12.6206 27.7963 12.6612 27.8867 12.686L32.4778 13.918C32.6131 13.9542 32.7555 13.9542 32.8908 13.918C33.0261 13.8819 33.1495 13.8108 33.2487 13.712L39.7648 7.19602C39.856 7.10377 39.9234 6.99071 39.9612 6.86659C39.9991 6.74247 40.0061 6.61102 39.9818 6.48357C39.9575 6.35611 39.9026 6.23649 39.8217 6.135C39.7409 6.03351 39.6366 5.95321 39.5178 5.90102Z" fill="#0089FF"/>
</svg>
