<svg width="38" height="27" viewBox="0 0 38 27" fill="none" xmlns="http://www.w3.org/2000/svg">
<path d="M37.2229 3.56699H32.5799C32.4767 3.56751 32.3746 3.58837 32.2795 3.62837C32.1844 3.66837 32.0982 3.72672 32.0256 3.80009C31.9531 3.87346 31.8957 3.96041 31.8568 4.05597C31.8179 4.15153 31.7982 4.25382 31.7989 4.35699V5.03899H29.6219C29.5187 5.03951 29.4167 5.06037 29.3215 5.10037C29.2264 5.14037 29.1402 5.19872 29.0676 5.27209C28.9951 5.34546 28.9377 5.43241 28.8988 5.52797C28.8599 5.62353 28.8402 5.72582 28.8409 5.82899V6.05599C27.8119 5.98492 26.8236 5.62592 25.9889 5.01999C24.4721 4.12517 22.9063 3.31623 21.2989 2.59699L21.2649 2.58199C20.4523 2.25483 19.5825 2.09346 18.7067 2.10737C17.8309 2.12128 16.9666 2.31019 16.1649 2.66299L13.0239 3.80199L10.3759 1.12199C10.3039 1.04931 10.2182 0.991607 10.1238 0.95223C10.0294 0.912853 9.92817 0.892578 9.82588 0.892578C9.72359 0.892578 9.62232 0.912853 9.52792 0.95223C9.43351 0.991607 9.34785 1.04931 9.27588 1.12199L0.580881 9.92199C0.432797 10.0701 0.349609 10.271 0.349609 10.4805C0.349609 10.69 0.432797 10.8908 0.580881 11.039L15.4349 26.073C15.5872 26.2061 15.7826 26.2794 15.9849 26.2794C16.1871 26.2794 16.3826 26.2061 16.5349 26.073L24.4729 18.04C24.6789 18.058 24.8939 18.068 25.1159 18.068C26.1055 17.9983 27.0643 17.6933 27.9123 17.1785C28.7604 16.6637 29.4734 15.9538 29.9919 15.108H37.2189C37.3221 15.1075 37.4241 15.0866 37.5192 15.0466C37.6143 15.0066 37.7006 14.9483 37.7731 14.8749C37.8457 14.8015 37.903 14.7146 37.9419 14.619C37.9809 14.5235 38.0005 14.4212 37.9999 14.318V4.35599C38.0009 4.14848 37.9198 3.94899 37.7742 3.80114C37.6286 3.65329 37.4304 3.5691 37.2229 3.56699ZM11.8039 10.894C11.8974 11.5313 12.1655 12.1302 12.5785 12.6244C12.9915 13.1186 13.5333 13.4888 14.1439 13.694L14.1649 13.701L15.7259 14.237C15.6078 14.778 15.3383 15.2743 14.9489 15.668C14.682 15.9388 14.364 16.1539 14.0133 16.3007C13.6625 16.4475 13.2861 16.5231 12.9059 16.5231C12.5257 16.5231 12.1492 16.4475 11.7985 16.3007C11.4478 16.1539 11.1297 15.9388 10.8629 15.668C10.3213 15.1161 10.018 14.3737 10.018 13.6005C10.018 12.8273 10.3213 12.0849 10.8629 11.533C11.131 11.2597 11.4509 11.0424 11.8039 10.894ZM13.3659 7.80899C12.8121 8.1198 12.3678 8.59409 12.0939 9.16699C11.2054 9.33404 10.3892 9.76882 9.75488 10.413C8.92072 11.2633 8.45343 12.4069 8.45343 13.598C8.45343 14.7891 8.92072 15.9327 9.75488 16.783C10.166 17.2001 10.6559 17.5312 11.1962 17.7573C11.7364 17.9833 12.3162 18.0997 12.9019 18.0997C13.4875 18.0997 14.0673 17.9833 14.6076 17.7573C15.1478 17.5312 15.6377 17.2001 16.0489 16.783C16.6083 16.2176 17.0079 15.5141 17.2069 14.744L19.8429 15.649C19.6972 16.3367 19.6955 17.0471 19.8378 17.7355C19.9801 18.4239 20.2634 19.0754 20.6699 19.649L18.8869 21.449C18.0444 20.8318 17.0272 20.4991 15.9829 20.4991C14.9385 20.4991 13.9214 20.8318 13.0789 21.449L5.13488 13.409C5.74552 12.5506 6.07364 11.5234 6.07364 10.47C6.07364 9.41659 5.74552 8.38934 5.13488 7.53099L6.91588 5.73099C7.75844 6.34839 8.77583 6.68124 9.82038 6.68124C10.8649 6.68124 11.8823 6.34839 12.7249 5.73099L14.4139 7.43999C14.0449 7.49794 13.6897 7.62301 13.3659 7.80899ZM21.7989 18.515C21.4978 18.0176 21.3259 17.4528 21.2989 16.872C21.7232 17.1821 22.1861 17.4355 22.6759 17.626L21.7989 18.515ZM9.82388 2.79799L11.6039 4.59799C11.0698 4.93011 10.4533 5.10612 9.82438 5.10612C9.19542 5.10612 8.57901 4.93011 8.04488 4.59799L9.82388 2.79799ZM4.01288 8.67799C4.34108 9.22103 4.51456 9.84347 4.51456 10.478C4.51456 11.1125 4.34108 11.7349 4.01288 12.278L2.23288 10.478L4.01288 8.67799ZM15.9869 24.397L14.2079 22.597C14.7417 22.2645 15.358 22.0883 15.9869 22.0883C16.6158 22.0883 17.2321 22.2645 17.7659 22.597L15.9869 24.397ZM25.1189 16.488C24.8462 16.4885 24.5738 16.4691 24.3039 16.43C23.1706 16.2865 22.1355 15.7139 21.4119 14.83C21.3959 14.806 21.3279 14.716 21.3179 14.702C21.2245 14.5321 21.0712 14.403 20.8879 14.34L14.6799 12.208C14.2397 12.0897 13.8618 11.8066 13.6246 11.4173C13.3874 11.028 13.3091 10.5624 13.4059 10.117C13.4597 9.92352 13.5512 9.74257 13.6751 9.58453C13.799 9.42648 13.9529 9.29445 14.1279 9.19599C14.3003 9.09828 14.4903 9.03569 14.687 9.01183C14.8837 8.98797 15.0831 9.00332 15.2739 9.05699L22.2739 11.3C22.372 11.331 22.4754 11.3423 22.5779 11.3332C22.6804 11.3241 22.7802 11.2948 22.8713 11.2469C22.9624 11.199 23.0431 11.1335 23.1088 11.0542C23.1745 10.9749 23.2238 10.8834 23.2539 10.785C23.317 10.5861 23.299 10.3703 23.2039 10.1845C23.1088 9.99876 22.9442 9.85806 22.7459 9.79299L17.1759 8.00299L17.1269 7.95399L14.2459 5.03699L16.7219 4.13699L16.7489 4.12699H16.7569L16.7879 4.11299C17.3986 3.84272 18.0573 3.69755 18.7251 3.68604C19.3929 3.67453 20.0562 3.79692 20.6759 4.04599C22.2299 4.74069 23.7434 5.52294 25.2089 6.38899C26.2787 7.13746 27.5371 7.57056 28.8409 7.63899V14.003C28.4677 14.6873 27.9341 15.2709 27.2858 15.7038C26.6376 16.1366 25.894 16.4057 25.1189 16.488ZM30.4029 6.61899H31.8029V13.528H30.4029V6.61899ZM36.4419 13.528H33.3609V5.14699H36.4419V13.528Z" fill="black"/>
</svg>
