<svg width="76" height="64" viewBox="0 0 76 64" fill="none" xmlns="http://www.w3.org/2000/svg">
<path d="M37.9042 0.0749969C43.2178 0.0479517 48.3672 1.91452 52.4292 5.34007C56.4911 8.76563 59.2001 13.5261 60.0702 18.768C64.6258 19.5011 68.7376 21.9244 71.5857 25.5547C74.4338 29.185 75.8088 33.7555 75.4365 38.3546C75.0643 42.9537 72.9721 47.2436 69.5773 50.3686C66.1824 53.4936 61.7344 55.2241 57.1202 55.215H47.9302C47.4871 55.215 47.062 55.0389 46.7487 54.7256C46.4353 54.4122 46.2592 53.9872 46.2592 53.544C46.2592 53.1008 46.4353 52.6758 46.7487 52.3624C47.062 52.049 47.4871 51.873 47.9302 51.873H57.1202C60.9898 51.8724 64.7104 50.3808 67.5087 47.7081C70.3071 45.0354 71.9679 41.3872 72.1461 37.5217C72.3243 33.6562 71.0061 29.8707 68.4655 26.952C65.925 24.0332 62.3574 22.2055 58.5042 21.849C58.1225 21.8158 57.7638 21.6525 57.4881 21.3863C57.2125 21.1202 57.0367 20.7673 56.9902 20.387C56.7027 17.8736 55.9215 15.4418 54.6915 13.2311C53.4614 11.0205 51.8068 9.07463 49.8226 7.50529C47.8384 5.93596 45.5637 4.77402 43.1292 4.08629C40.6946 3.39856 38.1482 3.19854 35.6362 3.49773C33.1241 3.79691 30.6959 4.5894 28.491 5.8297C26.2861 7.06999 24.348 8.73367 22.7879 10.7251C21.2277 12.7166 20.0764 14.9967 19.4 17.4344C18.7236 19.8721 18.5354 22.4193 18.8462 24.93C18.876 25.1663 18.855 25.4063 18.7844 25.6338C18.7139 25.8613 18.5956 26.0711 18.4373 26.2491C18.2791 26.4272 18.0846 26.5693 17.8669 26.6661C17.6493 26.7628 17.4134 26.8119 17.1752 26.81H16.1832C12.8595 26.81 9.67198 28.1303 7.32177 30.4805C4.97157 32.8307 3.65124 36.0183 3.65124 39.342C3.65124 42.6657 4.97157 45.8533 7.32177 48.2035C9.67198 50.5537 12.8595 51.874 16.1832 51.874H27.8832C28.3264 51.874 28.7514 52.0501 29.0648 52.3634C29.3782 52.6768 29.5542 53.1018 29.5542 53.545C29.5542 53.9881 29.3782 54.4132 29.0648 54.7265C28.7514 55.0399 28.3264 55.216 27.8832 55.216H16.1832C12.0341 55.2261 8.04661 53.6079 5.07791 50.7092C2.10921 47.8105 0.396295 43.8628 0.307355 39.7146C0.218415 35.5664 1.76055 31.5489 4.60229 28.5256C7.44402 25.5024 11.3585 23.7147 15.5042 23.547C15.3496 20.5142 15.8151 17.4818 16.8722 14.6351C17.9293 11.7883 19.5559 9.18702 21.6524 6.99022C23.749 4.79341 26.2715 3.0472 29.0658 1.85838C31.8602 0.669562 34.8676 0.0630605 37.9042 0.0759734V0.0749969ZM37.9042 30.152C38.3151 30.1602 38.711 30.3075 39.0272 30.57L48.2172 38.925C48.5416 39.2275 48.7363 39.6439 48.7606 40.0868C48.7848 40.5298 48.6367 40.9649 48.3472 41.301C48.0369 41.6143 47.6195 41.7988 47.1789 41.8173C46.7382 41.8359 46.3068 41.6871 45.9712 41.401L39.5712 35.579V61.896C39.5712 62.3392 39.3952 62.7642 39.0818 63.0776C38.7684 63.391 38.3434 63.567 37.9002 63.567C37.4571 63.567 37.032 63.391 36.7187 63.0776C36.4053 62.7642 36.2292 62.3392 36.2292 61.896V35.582L29.8292 41.404C29.4906 41.6832 29.0606 41.8275 28.6221 41.809C28.1835 41.7905 27.7673 41.6107 27.4532 41.304C27.1598 40.9696 27.0092 40.5335 27.0337 40.0893C27.0582 39.6451 27.2558 39.2282 27.5842 38.928L36.7742 30.573C36.9217 30.4263 37.0988 30.3129 37.2937 30.2403C37.4886 30.1677 37.6968 30.1376 37.9042 30.152Z" fill="#B5BCC3"/>
</svg>
