<svg width="64" height="41" viewBox="0 0 64 41" fill="none" xmlns="http://www.w3.org/2000/svg">
<path d="M60.9879 26.28L56.4189 24.3481C56.127 24.23 55.8763 24.0284 55.6985 23.7685C55.5206 23.5086 55.4233 23.202 55.4189 22.887V19.928H48.6969V22.887C48.6925 23.202 48.5953 23.5086 48.4174 23.7685C48.2395 24.0284 47.9889 24.23 47.6969 24.3481L43.1279 26.28C42.5438 26.5162 42.0425 26.9196 41.6867 27.4396C41.3309 27.9596 41.1365 28.573 41.1279 29.203V39.782H62.976V29.203C62.9684 28.5744 62.7757 27.9619 62.4222 27.4421C62.0686 26.9223 61.5698 26.5181 60.9879 26.28Z" fill="#FAD7A5"/>
<path d="M52.196 21.921H51.923C50.5341 21.921 49.202 21.3693 48.2199 20.3871C47.2378 19.405 46.686 18.0729 46.686 16.684V11.942H57.433V16.684C57.433 18.0729 56.8813 19.405 55.8992 20.3871C54.917 21.3693 53.585 21.921 52.196 21.921Z" fill="#FFE1B4"/>
<path d="M49.756 16.548V11.942H46.686V16.548C46.6853 17.3851 46.8804 18.2109 47.2556 18.9592C47.6308 19.7075 48.1758 20.3577 48.8471 20.8579C49.5184 21.3581 50.2973 21.6944 51.1217 21.8399C51.9461 21.9854 52.7931 21.9361 53.595 21.696C52.4862 21.3655 51.5137 20.686 50.822 19.7585C50.1304 18.831 49.7565 17.705 49.756 16.548Z" fill="#FAD7A5"/>
<path d="M52.828 8.104H51.292C49.8669 8.104 48.5003 8.67009 47.4927 9.67772C46.485 10.6854 45.919 12.052 45.919 13.477V14.705C45.918 14.8359 45.9506 14.9648 46.0137 15.0795C46.0768 15.1941 46.1682 15.2907 46.2793 15.3599C46.3904 15.4292 46.5173 15.4687 46.6481 15.4749C46.7788 15.481 46.9089 15.4535 47.026 15.395C47.9246 14.8949 48.7098 14.2139 49.332 13.395C49.3926 13.3167 49.468 13.251 49.5539 13.2018C49.6399 13.1526 49.7347 13.1208 49.833 13.1083C49.9313 13.0958 50.031 13.1027 50.1266 13.1287C50.2221 13.1548 50.3117 13.1994 50.39 13.26C52.826 15.078 56.218 14.66 57.59 14.389C57.7631 14.3538 57.9187 14.2596 58.0301 14.1224C58.1416 13.9853 58.2019 13.8137 58.2009 13.637V13.481C58.2015 12.7751 58.0629 12.076 57.7931 11.4236C57.5233 10.7713 57.1276 10.1785 56.6287 9.67914C56.1297 9.17979 55.5372 8.78365 54.885 8.51338C54.2329 8.24311 53.5339 8.104 52.828 8.104Z" fill="#D59F63"/>
<path d="M47.0259 15.394C47.9246 14.8939 48.7098 14.2129 49.3319 13.394C49.4242 13.2762 49.5517 13.191 49.6959 13.151C48.8214 11.8769 48.456 10.3213 48.6719 8.79102C47.8372 9.25676 47.1419 9.93692 46.658 10.7612C46.174 11.5855 45.9189 12.5241 45.919 13.48V14.708C45.9184 14.8386 45.9513 14.9672 46.0146 15.0815C46.0779 15.1958 46.1695 15.2919 46.2805 15.3607C46.3915 15.4296 46.5184 15.4688 46.6489 15.4746C46.7794 15.4804 46.9092 15.4527 47.0259 15.394Z" fill="#CD915A"/>
<path d="M60.9869 26.281L56.4179 24.349C56.0654 24.1974 55.7778 23.9261 55.6059 23.583L52.0339 26.846L48.4959 23.614C48.3212 23.9433 48.0388 24.2027 47.696 24.349L43.127 26.281C42.5429 26.5172 42.0415 26.9206 41.6857 27.4406C41.3299 27.9606 41.1355 28.574 41.127 29.204V39.783H62.9749V29.204C62.9673 28.5754 62.7748 27.9629 62.4212 27.4431C62.0677 26.9232 61.5688 26.5191 60.9869 26.281Z" fill="#DBD9DC"/>
<path d="M17.4741 28.44L13.9251 27.109C13.5956 26.9856 13.3116 26.7646 13.1111 26.4754C12.9106 26.1863 12.8031 25.8428 12.8031 25.491V23.273H7.61908V25.493C7.61903 25.8449 7.51157 26.1883 7.31107 26.4774C7.11057 26.7666 6.82658 26.9876 6.49708 27.111L2.94808 28.44C2.28918 28.6871 1.72139 29.1295 1.32058 29.7079C0.919776 30.2863 0.705043 30.9733 0.705078 31.677V39.783H19.7171V31.677C19.7171 30.9733 19.5024 30.2863 19.1016 29.7079C18.7008 29.1295 18.133 28.6871 17.4741 28.44Z" fill="#E6AF78"/>
<path d="M0.705078 39.782H19.7171V31.676C19.7171 30.9723 19.5024 30.2853 19.1016 29.7069C18.7008 29.1285 18.133 28.6861 17.4741 28.439L14.0611 27.159L11.4341 29.786C11.2736 29.9465 11.0831 30.0738 10.8734 30.1607C10.6638 30.2475 10.439 30.2922 10.2121 30.2922C9.98513 30.2922 9.7604 30.2475 9.55072 30.1607C9.34105 30.0738 9.15054 29.9465 8.99008 29.786L6.36208 27.159L2.94808 28.435C2.28918 28.6821 1.72139 29.1245 1.32058 29.7029C0.919776 30.2813 0.705043 30.9683 0.705078 31.672V39.778V39.782Z" fill="#DBD9DC"/>
<path d="M10.2451 24.137H10.1781C8.58257 24.137 7.05237 23.5032 5.92415 22.375C4.79593 21.2468 4.16211 19.7166 4.16211 18.121V15.462C4.16211 13.8665 4.79593 12.3363 5.92415 11.2081C7.05237 10.0799 8.58257 9.44604 10.1781 9.44604H10.2451C11.8407 9.44604 13.3708 10.0799 14.4991 11.2081C15.6273 12.3363 16.2611 13.8665 16.2611 15.462V18.125C16.26 19.7199 15.6258 21.2491 14.4977 22.3764C13.3695 23.5038 11.84 24.137 10.2451 24.137Z" fill="#F0C087"/>
<path d="M7.61911 18.088V15.495C7.61845 14.1918 8.0387 12.9232 8.8173 11.8781C9.59589 10.833 10.6912 10.0673 11.9401 9.69502C11.0369 9.42475 10.0831 9.36947 9.1547 9.5336C8.22634 9.69773 7.34924 10.0767 6.59348 10.6403C5.83772 11.2039 5.22424 11.9364 4.80208 12.7793C4.37991 13.6223 4.16075 14.5523 4.16212 15.495V18.088C4.16075 19.0308 4.37991 19.9608 4.80208 20.8037C5.22424 21.6467 5.83772 22.3792 6.59348 22.9428C7.34924 23.5063 8.22634 23.8853 9.1547 24.0494C10.0831 24.2136 11.0369 24.1583 11.9401 23.888C10.6913 23.5156 9.59607 22.7499 8.8175 21.7048C8.03893 20.6597 7.61861 19.3912 7.61911 18.088Z" fill="#E6AF78"/>
<path d="M10.2119 12.903C12.1211 12.903 13.6689 11.3553 13.6689 9.44601C13.6689 7.53677 12.1211 5.98901 10.2119 5.98901C8.30263 5.98901 6.75488 7.53677 6.75488 9.44601C6.75488 11.3553 8.30263 12.903 10.2119 12.903Z" fill="#6E4B53"/>
<path d="M4.16211 15.4951V17.4341C5.31685 16.9112 6.34831 16.1507 7.18911 15.2021C7.31834 15.0533 7.49546 14.9543 7.68989 14.9221C7.88433 14.89 8.08388 14.9267 8.25411 15.026C10.7334 16.3186 13.4675 17.0476 16.2611 17.1611V15.4951C16.2611 13.8908 15.6238 12.3522 14.4894 11.2178C13.355 10.0834 11.8164 9.44605 10.2121 9.44605C9.41766 9.44591 8.63096 9.60229 7.89695 9.90622C7.16294 10.2102 6.49598 10.6557 5.93417 11.2174C5.37237 11.7791 4.92671 12.446 4.62266 13.18C4.3186 13.9139 4.16211 14.7006 4.16211 15.4951Z" fill="#5C414B"/>
<path d="M6.90618 10.431C6.06269 10.9797 5.36962 11.7304 4.8899 12.6149C4.41017 13.4994 4.159 14.4898 4.15918 15.496V17.435C5.31394 16.9122 6.3454 16.1517 7.18618 15.203C7.31973 15.0466 7.50779 14.9469 7.71218 14.924C6.93711 13.5628 6.6526 11.9768 6.90618 10.431Z" fill="#503441"/>
<path d="M4.39208 32.937L1.26208 29.807C0.900317 30.3634 0.706903 31.0124 0.705078 31.676V39.782H5.26608V35.048C5.26612 34.2563 4.95175 33.497 4.39208 32.937Z" fill="#EDEBED"/>
<path d="M42.7069 23.139L37.2969 20.639C36.9402 20.4684 36.6395 20.1996 36.4301 19.8642C36.2208 19.5287 36.1114 19.1405 36.1149 18.745V14.905H28.1539V18.741C28.1574 19.1365 28.0481 19.5247 27.8387 19.8602C27.6294 20.1956 27.3287 20.4644 26.9719 20.635L21.5619 23.135C20.8482 23.4762 20.2467 24.0139 19.8279 24.6851C19.4092 25.3563 19.1906 26.133 19.1979 26.924V39.778H45.0709V26.928C45.0781 26.137 44.8595 25.3603 44.4408 24.6892C44.0221 24.0181 43.4206 23.4803 42.7069 23.139Z" fill="#B48764"/>
<path d="M19.1982 39.782H45.0712V26.928C45.0784 26.137 44.8598 25.3603 44.4411 24.6892C44.0224 24.0181 43.4209 23.4803 42.7072 23.139L37.3342 20.651L33.5423 24.443C33.3574 24.6279 33.138 24.7746 32.8965 24.8747C32.655 24.9747 32.3962 25.0262 32.1348 25.0262C31.8733 25.0262 31.6145 24.9747 31.373 24.8747C31.1315 24.7746 30.9121 24.6279 30.7272 24.443L26.9353 20.649L21.5652 23.139C20.8515 23.4802 20.25 24.018 19.8312 24.6891C19.4125 25.3603 19.1939 26.137 19.2012 26.928V39.782H19.1982Z" fill="#5D5360"/>
<path d="M32.1349 18.885C30.2875 18.885 28.5156 18.1511 27.2092 16.8447C25.9029 15.5384 25.1689 13.7665 25.1689 11.919V5.94904H39.101V11.92C39.1007 13.7674 38.3667 15.5389 37.0603 16.8451C35.754 18.1513 33.9823 18.885 32.1349 18.885Z" fill="#C39772"/>
<path d="M29.149 11.919V5.94904H25.168V11.92C25.167 13.0052 25.4198 14.0756 25.9061 15.0457C26.3925 16.0158 27.099 16.8588 27.9691 17.5072C28.8393 18.1557 29.849 18.5916 30.9177 18.7803C31.9864 18.9691 33.0844 18.9053 34.124 18.594C32.6866 18.1653 31.426 17.2841 30.5297 16.0815C29.6333 14.8788 29.1491 13.419 29.149 11.919Z" fill="#B48764"/>
<path d="M33.1289 0.973023H31.1399C29.2924 0.973023 27.5205 1.70693 26.2142 3.01331C24.9078 4.31969 24.1739 6.09153 24.1739 7.93903V9.53102C24.1725 9.7007 24.2147 9.86789 24.2965 10.0166C24.3782 10.1653 24.4968 10.2905 24.6408 10.3802C24.7848 10.4699 24.9495 10.5212 25.119 10.529C25.2885 10.5369 25.4572 10.5011 25.6089 10.425C26.7744 9.77454 27.7922 8.88919 28.5979 7.82502C28.7566 7.62016 28.9901 7.48668 29.2471 7.45387C29.5042 7.42105 29.7638 7.4916 29.9689 7.65002C33.1269 10.006 37.5249 9.46502 39.3029 9.11402C39.5274 9.06863 39.7292 8.9467 39.8738 8.76907C40.0185 8.59143 40.0969 8.36909 40.0959 8.14002V7.94003C40.096 7.02507 39.9159 6.11905 39.5658 5.27371C39.2157 4.42838 38.7025 3.66029 38.0556 3.01331C37.4086 2.36634 36.6405 1.85317 35.7952 1.50309C34.9498 1.15301 34.0438 0.972891 33.1289 0.973023Z" fill="#5C414B"/>
<path d="M25.6079 10.425C26.7734 9.77454 27.7912 8.8892 28.5969 7.82503C28.7162 7.67188 28.8817 7.56139 29.0689 7.51003C27.9349 5.85844 27.4611 3.84182 27.7409 1.85803C26.6591 2.46194 25.7581 3.34363 25.1308 4.41209C24.5036 5.48056 24.1729 6.69707 24.1729 7.93603V9.52803C24.171 9.69796 24.2129 9.86553 24.2944 10.0146C24.376 10.1637 24.4945 10.2893 24.6386 10.3794C24.7827 10.4695 24.9475 10.521 25.1173 10.529C25.287 10.537 25.456 10.5012 25.6079 10.425Z" fill="#503441"/>
<path d="M24.1742 31.067C24.1743 30.2753 23.8599 29.516 23.3002 28.956L19.5572 25.213C19.3212 25.7536 19.1993 26.3371 19.1992 26.927V39.781H24.1752V31.066L24.1742 31.067Z" fill="#6F6571"/>
<path d="M40.0952 31.067C40.0952 30.2753 40.4096 29.516 40.9692 28.956L44.7122 25.213C44.9483 25.7536 45.0701 26.3371 45.0703 26.927V39.781H40.0942L40.0952 31.067Z" fill="#6F6571"/>
<path d="M62.9839 39.782V29.2C62.9817 28.5605 62.7808 27.9374 62.4089 27.4171L59.8779 29.9481C59.3182 30.508 59.0039 31.2673 59.0039 32.0591V39.778L62.9839 39.782Z" fill="#EDEBED"/>
<path d="M42.8181 22.959L37.3971 20.55C37.2096 20.4665 37.0503 20.3305 36.9385 20.1583C36.8267 19.9862 36.7672 19.7853 36.7671 19.58V18.091C37.6999 17.3515 38.4535 16.4107 38.9716 15.339C39.4897 14.2673 39.7589 13.0924 39.7591 11.902V9.80202C40.0616 9.63534 40.3138 9.39067 40.4897 9.09347C40.6656 8.79626 40.7586 8.45736 40.7591 8.11202V7.91203C40.7567 5.8141 39.9223 3.80278 38.4388 2.31932C36.9554 0.835861 34.944 0.00140549 32.8461 -0.000976562H30.8521C28.7542 0.00140549 26.7429 0.835861 25.2594 2.31932C23.776 3.80278 22.9415 5.8141 22.9391 7.91203V9.75703C22.9341 10.058 22.9986 10.3561 23.1277 10.6281C23.2567 10.9 23.4468 11.1385 23.6831 11.325C23.7628 11.3866 23.8474 11.4414 23.9361 11.489V11.901C23.9362 13.0913 24.2053 14.2662 24.7232 15.3379C25.2411 16.4096 25.9945 17.3504 26.9271 18.09V19.579C26.9271 19.7843 26.8676 19.9852 26.7558 20.1573C26.6439 20.3295 26.4846 20.4655 26.2971 20.549L20.8761 22.958C20.006 23.3453 19.2669 23.9764 18.7481 24.7751C18.2293 25.5737 17.9532 26.5057 17.9531 27.458V39.823C17.9531 40.0705 18.0514 40.3078 18.2264 40.4828C18.4014 40.6577 18.6387 40.756 18.8861 40.756C19.1336 40.756 19.3709 40.6577 19.5459 40.4828C19.7208 40.3078 19.8191 40.0705 19.8191 39.823V27.456C19.8198 27.3488 19.8262 27.2416 19.8381 27.135L22.3381 29.635C22.5294 29.826 22.6809 30.053 22.7839 30.303C22.8869 30.5529 22.9393 30.8207 22.9381 31.091V39.823C22.9381 40.0705 23.0364 40.3078 23.2114 40.4828C23.3864 40.6577 23.6237 40.756 23.8711 40.756C24.1186 40.756 24.3559 40.6577 24.5309 40.4828C24.7058 40.3078 24.8041 40.0705 24.8041 39.823V31.091C24.8055 30.5755 24.7047 30.0648 24.5075 29.5885C24.3102 29.1122 24.0205 28.6797 23.6551 28.316L20.6771 25.338C20.9495 25.0545 21.2741 24.8263 21.6331 24.666L26.9631 22.297L30.9161 26.25V39.823C30.9161 40.0705 31.0144 40.3078 31.1894 40.4828C31.3644 40.6577 31.6017 40.756 31.8491 40.756C32.0966 40.756 32.3339 40.6577 32.5089 40.4828C32.6838 40.3078 32.7821 40.0705 32.7821 39.823V26.248L36.7351 22.295L42.0651 24.664C42.4242 24.8242 42.7488 25.0524 43.0211 25.336L40.0431 28.314C39.6777 28.6777 39.388 29.1102 39.1908 29.5865C38.9935 30.0628 38.8927 30.5735 38.8941 31.089V39.821C38.8941 40.0685 38.9924 40.3058 39.1674 40.4808C39.3424 40.6557 39.5797 40.754 39.8271 40.754C40.0746 40.754 40.3119 40.6557 40.4868 40.4808C40.6618 40.3058 40.7601 40.0685 40.7601 39.821V31.089C40.7589 30.8187 40.8114 30.5509 40.9144 30.301C41.0173 30.051 41.1688 29.824 41.3601 29.633L43.8601 27.133C43.8721 27.2396 43.8784 27.3468 43.8791 27.454V39.819C43.8791 40.0665 43.9774 40.3038 44.1524 40.4788C44.3274 40.6537 44.5647 40.752 44.8121 40.752C45.0596 40.752 45.2969 40.6537 45.4718 40.4788C45.6468 40.3038 45.7451 40.0665 45.7451 39.819V27.456C45.744 26.5038 45.4669 25.5722 44.9475 24.7741C44.428 23.976 43.6884 23.3456 42.8181 22.959ZM25.7981 11.901V11.481C26.4257 11.2217 27 10.8488 27.4921 10.381C27.6739 10.2131 27.7816 9.97992 27.7914 9.73265C27.8013 9.48538 27.7125 9.24433 27.5446 9.06252C27.3767 8.88072 27.1435 8.77305 26.8962 8.76321C26.649 8.75336 26.4079 8.84214 26.2261 9.01003C25.8387 9.39436 25.3632 9.67825 24.8411 9.83703H24.8161C24.8044 9.81062 24.799 9.78188 24.8001 9.75302V7.91602C24.802 6.31283 25.4397 4.77583 26.5733 3.6422C27.7069 2.50857 29.2439 1.87088 30.8471 1.86903H32.8411C34.4443 1.87088 35.9813 2.50857 37.1149 3.6422C38.2486 4.77583 38.8863 6.31283 38.8881 7.91602V8.11603C38.889 8.12943 38.8853 8.14272 38.8777 8.15378C38.87 8.16484 38.8589 8.17302 38.8461 8.17702C33.2591 9.27703 30.4571 7.20103 29.5121 6.25603C29.4264 6.16562 29.3234 6.09331 29.2092 6.04335C29.0951 5.99339 28.9721 5.96681 28.8475 5.96516C28.7229 5.96352 28.5993 5.98684 28.4838 6.03376C28.3684 6.08068 28.2636 6.15024 28.1754 6.23835C28.0873 6.32646 28.0178 6.43132 27.9709 6.54675C27.9239 6.66217 27.9006 6.78583 27.9023 6.91042C27.9039 7.035 27.9305 7.158 27.9805 7.27215C28.0304 7.38629 28.1027 7.48928 28.1931 7.57503C31.0931 10.475 35.3171 10.524 37.8931 10.215V11.901C37.8931 13.5048 37.256 15.0429 36.122 16.1769C34.988 17.3109 33.4499 17.948 31.8461 17.948C30.2424 17.948 28.7043 17.3109 27.5703 16.1769C26.4362 15.0429 25.7991 13.5048 25.7991 11.901H25.7981ZM31.8451 19.816C32.8942 19.8171 33.9329 19.6083 34.9001 19.202V19.582C34.9007 20.1081 35.0434 20.6243 35.3131 21.076L31.8451 24.544L28.3771 21.076C28.6468 20.6243 28.7895 20.1081 28.7901 19.582V19.202C29.7573 19.6083 30.796 19.817 31.8451 19.816Z" fill="black"/>
<path d="M16.823 15.89C16.8223 14.7339 16.5317 13.5963 15.9777 12.5815C15.4238 11.5667 14.6241 10.707 13.652 10.081C13.8356 9.49356 13.8783 8.87115 13.7768 8.2641C13.6754 7.65704 13.4325 7.08237 13.0679 6.5865C12.7034 6.09064 12.2272 5.6875 11.678 5.40964C11.1289 5.13178 10.522 4.987 9.90654 4.987C9.29106 4.987 8.68421 5.13178 8.13503 5.40964C7.58584 5.6875 7.10972 6.09064 6.74513 6.5865C6.38053 7.08237 6.13769 7.65704 6.03623 8.2641C5.93476 8.87115 5.97752 9.49356 6.16104 10.081C5.18912 10.7071 4.3897 11.5668 3.8359 12.5816C3.28211 13.5965 2.99163 14.734 2.99104 15.89V17.884C2.9914 19.0038 3.26381 20.1067 3.78483 21.0979C4.30584 22.0891 5.05987 22.9388 5.98204 23.574V25.626C5.98257 25.8233 5.92787 26.0167 5.82412 26.1844C5.72038 26.3521 5.57174 26.4875 5.39504 26.575L2.16804 28.188C1.51449 28.512 0.964885 29.0127 0.581652 29.6333C0.198418 30.254 -0.00308328 30.9696 3.56657e-05 31.699V39.821C3.56657e-05 40.0685 0.0983336 40.3058 0.273305 40.4808C0.448277 40.6557 0.685589 40.754 0.933036 40.754C1.18048 40.754 1.41779 40.6557 1.59277 40.4808C1.76774 40.3058 1.86604 40.0685 1.86604 39.821V32.102L3.38604 33.622C3.57731 33.813 3.72882 34.04 3.83181 34.29C3.93479 34.5399 3.98721 34.8077 3.98604 35.078V39.821C3.98604 40.0685 4.08433 40.3058 4.25931 40.4808C4.43428 40.6557 4.67159 40.754 4.91904 40.754C5.16648 40.754 5.40379 40.6557 5.57877 40.4808C5.75374 40.3058 5.85204 40.0685 5.85204 39.821V35.077C5.85343 34.5615 5.7526 34.0508 5.55538 33.5745C5.35816 33.0982 5.06846 32.6657 4.70304 32.302L2.59004 30.188L2.55804 30.159C2.69311 30.0402 2.84303 29.9393 3.00404 29.859L6.23104 28.246C6.39391 28.1641 6.54889 28.0674 6.69404 27.957L8.97504 30.238V39.821C8.97504 40.0685 9.07333 40.3058 9.2483 40.4808C9.42328 40.6557 9.66059 40.754 9.90804 40.754C10.1555 40.754 10.3928 40.6557 10.5678 40.4808C10.7427 40.3058 10.841 40.0685 10.841 39.821V30.236L13.122 27.955C13.2671 28.0654 13.4221 28.1622 13.585 28.244L14.475 28.689C14.5846 28.7439 14.7039 28.7766 14.8262 28.7853C14.9484 28.794 15.0711 28.7786 15.1874 28.7398C15.3037 28.7011 15.4112 28.6399 15.5037 28.5596C15.5963 28.4793 15.6722 28.3816 15.727 28.272C15.7819 28.1624 15.8146 28.0431 15.8233 27.9209C15.832 27.7987 15.8166 27.6759 15.7778 27.5597C15.7391 27.4434 15.6779 27.3359 15.5976 27.2433C15.5173 27.1507 15.4196 27.0749 15.31 27.02L14.42 26.575C14.2433 26.4875 14.0946 26.3522 13.9908 26.1845C13.887 26.0167 13.8324 25.8233 13.833 25.626V23.574C14.7552 22.9388 15.5092 22.0891 16.0302 21.0979C16.5513 20.1067 16.8237 19.0038 16.824 17.884V15.889L16.823 15.89ZM7.84904 8.91003C7.84904 8.63971 7.90228 8.37203 8.00573 8.12228C8.10918 7.87254 8.26081 7.6456 8.45196 7.45445C8.64311 7.2633 8.87003 7.11169 9.11978 7.00824C9.36953 6.90479 9.63721 6.85153 9.90754 6.85153C10.1779 6.85153 10.4455 6.90479 10.6953 7.00824C10.945 7.11169 11.172 7.2633 11.3631 7.45445C11.5543 7.6456 11.7059 7.87254 11.8093 8.12228C11.9128 8.37203 11.966 8.63971 11.966 8.91003C11.9659 9.03343 11.9549 9.15659 11.933 9.27805C10.6136 8.87405 9.20347 8.87405 7.88404 9.27805C7.86143 9.15667 7.84971 9.0335 7.84904 8.91003ZM9.90703 10.84C11.2459 10.8416 12.5295 11.3742 13.4762 12.3209C14.4229 13.2676 14.9554 14.5512 14.957 15.89V16.228C13.8379 16.5793 12.6391 16.5865 11.5158 16.2486C10.3926 15.9108 9.39665 15.2434 8.65703 14.333C8.57684 14.2261 8.4746 14.1377 8.35725 14.0737C8.2399 14.0097 8.11017 13.9717 7.97685 13.9622C7.84353 13.9527 7.70973 13.972 7.58451 14.0187C7.45928 14.0655 7.34556 14.1385 7.25104 14.233C6.58455 14.9231 5.76469 15.4463 4.85804 15.76C4.8932 14.4439 5.44044 13.1935 6.38336 12.2747C7.32628 11.3558 8.59047 10.8411 9.90703 10.84ZM12.063 26.374L9.90703 28.531L7.75104 26.375C7.8163 26.1307 7.8499 25.879 7.85104 25.626V24.487C9.19167 24.9042 10.6274 24.9042 11.968 24.487V25.626C11.9675 25.8787 11.9995 26.1305 12.063 26.375V26.374ZM9.90703 22.933C8.56818 22.9315 7.28462 22.3989 6.3379 21.4522C5.39119 20.5055 4.85862 19.2219 4.85704 17.883V17.69C5.95715 17.4253 6.98289 16.9145 7.85704 16.196C8.3778 16.6876 8.95916 17.1107 9.58704 17.455C10.6792 18.0563 11.9053 18.3727 13.152 18.375C13.7583 18.3734 14.3624 18.3013 14.952 18.16C14.88 19.4496 14.3172 20.6627 13.379 21.5504C12.4409 22.4382 11.1986 22.9332 9.90703 22.934V22.933Z" fill="black"/>
<path d="M61.5191 26.194L56.2981 23.583C56.1214 23.4954 55.9728 23.3601 55.869 23.1924C55.7653 23.0246 55.7106 22.8312 55.7111 22.634V21.312C56.3383 20.758 56.8404 20.077 57.1842 19.314C57.528 18.5511 57.7055 17.7238 57.7051 16.887V15.825H57.7691C58.0166 15.825 58.2539 15.7267 58.4288 15.5517C58.6038 15.3768 58.7021 15.1395 58.7021 14.892V12.898C58.7005 11.3287 58.0764 9.82408 56.9667 8.7144C55.8571 7.60472 54.3524 6.98059 52.7831 6.979H50.7891C49.2198 6.98059 47.7152 7.60472 46.6055 8.7144C45.4958 9.82408 44.8717 11.3287 44.8701 12.898V14.892C44.8701 15.1395 44.9684 15.3768 45.1434 15.5517C45.3183 15.7267 45.5557 15.825 45.8031 15.825H45.8671V16.888C45.8667 17.7248 46.0442 18.5521 46.388 19.315C46.7318 20.078 47.234 20.759 47.8611 21.313V22.635C47.8618 22.8323 47.8071 23.0257 47.7033 23.1935C47.5996 23.3612 47.4509 23.4965 47.2741 23.584C47.1626 23.6376 47.0628 23.7128 46.9806 23.8053C46.8984 23.8979 46.8355 24.0058 46.7954 24.1229C46.7553 24.2399 46.739 24.3638 46.7473 24.4873C46.7555 24.6108 46.7883 24.7313 46.8436 24.842C46.8989 24.9527 46.9757 25.0513 47.0694 25.132C47.1632 25.2128 47.2721 25.2741 47.3898 25.3123C47.5075 25.3505 47.6316 25.365 47.7549 25.3548C47.8782 25.3446 47.9983 25.31 48.1081 25.253C48.271 25.1711 48.426 25.0743 48.5711 24.964L50.8521 27.245V39.821C50.8521 40.0685 50.9504 40.3058 51.1254 40.4807C51.3003 40.6557 51.5377 40.754 51.7851 40.754C52.0326 40.754 52.2699 40.6557 52.4449 40.4807C52.6198 40.3058 52.7181 40.0685 52.7181 39.821V27.245L54.9991 24.964C55.1442 25.0744 55.2992 25.1711 55.4621 25.253L60.5141 27.779L58.9821 29.311C58.6167 29.6747 58.327 30.1071 58.1298 30.5835C57.9325 31.0598 57.8317 31.5705 57.8331 32.086V39.821C57.8331 40.0685 57.9314 40.3058 58.1064 40.4807C58.2814 40.6557 58.5187 40.754 58.7661 40.754C59.0136 40.754 59.2509 40.6557 59.4258 40.4807C59.6008 40.3058 59.6991 40.0685 59.6991 39.821V32.082C59.6979 31.8117 59.7503 31.5438 59.8533 31.2939C59.9563 31.044 60.1078 30.817 60.2991 30.626L61.7511 29.174C61.796 29.3454 61.8189 29.5218 61.8191 29.699V39.816C61.8191 40.0635 61.9174 40.3008 62.0924 40.4757C62.2673 40.6507 62.5047 40.749 62.7521 40.749C62.9996 40.749 63.2369 40.6507 63.4118 40.4757C63.5868 40.3008 63.6851 40.0635 63.6851 39.816V29.704C63.6882 28.975 63.4869 28.2597 63.1041 27.6393C62.7212 27.0188 62.1721 26.5181 61.5191 26.194ZM46.7371 12.894C46.7382 11.8194 47.1655 10.7891 47.9254 10.0293C48.6852 9.26941 49.7155 8.84206 50.7901 8.841H52.7841C53.8587 8.84206 54.889 9.26941 55.6488 10.0293C56.4087 10.7891 56.836 11.8194 56.8371 12.894V13.93C54.5475 13.8587 52.3088 13.2372 50.3101 12.118C50.1306 11.9985 49.9153 11.9448 49.7007 11.9662C49.4861 11.9875 49.2856 12.0825 49.1331 12.235C48.4646 12.9265 47.6423 13.4503 46.7331 13.764V12.895L46.7371 12.894ZM47.7371 15.379C48.5347 15.0559 49.2741 14.6046 49.9261 14.043C51.7759 14.9678 53.7824 15.5383 55.8421 15.725V16.883C55.8421 17.9579 55.4151 18.9888 54.655 19.7489C53.8949 20.509 52.864 20.936 51.7891 20.936C50.7142 20.936 49.6833 20.509 48.9232 19.7489C48.1631 18.9888 47.7361 17.9579 47.7361 16.883V15.383L47.7371 15.379ZM51.7901 22.802C52.4927 22.8024 53.1897 22.6771 53.8481 22.432V22.632C53.8492 22.8849 53.8828 23.1367 53.9481 23.381L51.7921 25.537L49.6361 23.381C49.7014 23.1367 49.735 22.8849 49.7361 22.632V22.432C50.3921 22.6777 51.0866 22.8043 51.7871 22.806L51.7901 22.802Z" fill="black"/>
</svg>
