<svg width="40" height="40" viewBox="0 0 40 40" fill="none" xmlns="http://www.w3.org/2000/svg">
<path d="M24.6664 0.666992L20.6665 6.00026L24.6664 11.3335H39.3328V0.666992H24.6664ZM25.3331 7.33354C24.5964 7.33354 23.9998 6.7369 23.9998 6.00026C23.9998 5.26362 24.5964 4.66698 25.3331 4.66698C26.0697 4.66698 26.6663 5.26362 26.6663 6.00026C26.6663 6.7369 26.0697 7.33354 25.3331 7.33354Z" fill="#4398D1"/>
<path d="M39.3327 3.0683L27.439 11.3335H39.3327V3.0683Z" fill="#3F8FC4"/>
<path d="M29.3323 16.6667H10.666V33.333H29.3323V16.6667Z" fill="#F9B44D"/>
<path d="M21.9994 16.6667H17.9995V20.6666H21.9994V16.6667Z" fill="#F77219"/>
<path d="M32.3327 20.6666H29.3327V19.3333H32.3326C33.6212 19.3333 34.6659 18.2887 34.6659 17.0001C34.6659 15.7115 33.6212 14.6668 32.3326 14.6668H17.9996C15.4223 14.6668 13.333 12.5775 13.333 10.0002C13.333 7.42297 15.4223 5.33368 17.9996 5.33368H23.9995V6.66696H17.9996C16.1589 6.66696 14.6663 8.15961 14.6663 10.0002C14.6663 11.8409 16.1589 13.3335 17.9996 13.3335H32.3327C34.358 13.3335 35.9993 14.9748 35.9993 17.0001C35.9993 19.0254 34.358 20.6666 32.3327 20.6666Z" fill="#4398D1"/>
<path d="M10.666 32.9997V33.3331H29.3323V19.0001L10.666 32.9997Z" fill="#F7AA36"/>
<path d="M25.999 32.6665H24.6657C25.9544 32.6665 26.999 31.6218 26.999 30.3332C26.999 29.0445 25.9543 27.9999 24.6657 27.9999H17.9992C15.108 26.3473 11.5573 26.3473 8.66602 27.9999V39.333H25.999L38.0921 32.0772C38.8614 31.6159 39.3321 30.7845 39.3321 29.8872C39.3321 28.4772 38.1888 27.3332 36.7781 27.3332H36.6375C36.2189 27.3339 35.8069 27.4366 35.4375 27.6338L25.999 32.6665Z" fill="#FEC9A3"/>
<path d="M8.66647 27.9999H0V39.333H8.66647V27.9999Z" fill="#4398D1"/>
<path d="M25.9993 33.333H18.6662C18.2982 33.333 17.9995 33.0344 17.9995 32.6664C17.9995 32.2984 18.2982 31.9998 18.6662 31.9998H25.9993C26.3673 31.9998 26.666 32.2984 26.666 32.6664C26.6661 33.0344 26.3674 33.333 25.9993 33.333Z" fill="#F5B789"/>
<path d="M8.66647 32.6664H0V39.333H8.66647V32.6664Z" fill="#3F8FC4"/>
<path d="M4.66677 36.6663C5.40312 36.6663 6.00005 36.0694 6.00005 35.333C6.00005 34.5967 5.40312 33.9998 4.66677 33.9998C3.93043 33.9998 3.3335 34.5967 3.3335 35.333C3.3335 36.0694 3.93043 36.6663 4.66677 36.6663Z" fill="#18588C"/>
<path d="M6.66699 35.3329C6.66699 34.2283 5.77168 33.3329 4.66699 33.3329C3.5623 33.3329 2.66699 34.2283 2.66699 35.3329C2.66699 36.4376 3.5623 37.3329 4.66699 37.3329C5.77168 37.3329 6.66699 36.4376 6.66699 35.3329ZM4.00035 35.3329C4.00035 34.965 4.29902 34.6663 4.66699 34.6663C5.03496 34.6663 5.33363 34.965 5.33363 35.3329C5.33363 35.7009 5.03496 35.9996 4.66699 35.9996C4.29902 35.9996 4.00035 35.7016 4.00035 35.3329Z" fill="black"/>
<path d="M39.3326 0.000244141H24.6662C24.4562 0.000244141 24.2589 0.0989158 24.1328 0.266884L20.3329 5.33344H17.9997C15.4224 5.33344 13.3331 7.42273 13.3331 9.99999C13.3331 12.5773 15.4224 14.6665 17.9997 14.6665H32.3327C33.6214 14.6665 34.666 15.7112 34.666 16.9998C34.666 18.2884 33.6213 19.3331 32.3327 19.3331H29.9995V16.6665C29.9995 16.2985 29.7008 15.9998 29.3328 15.9998H10.6665C10.2985 15.9998 9.99982 16.2985 9.99982 16.6665V26.6663C9.48318 26.847 8.98186 27.0696 8.50186 27.3329H0V28.6662H7.99983V38.6662H0V39.9995H25.2609C25.8649 39.9995 26.4582 39.8348 26.9762 39.5241L38.4353 32.6489C39.9606 31.7342 40.4559 29.7557 39.5406 28.2303C38.9587 27.2603 37.91 26.6664 36.7787 26.6664H36.6381C36.1094 26.6664 35.5894 26.7971 35.1227 27.045L29.9995 29.7777V20.6665H32.3327C34.3581 20.6665 35.9994 19.0251 35.9994 16.9998C35.9994 14.9745 34.3581 13.3332 32.3327 13.3332H17.9997C16.159 13.3332 14.6664 11.8405 14.6664 9.99991C14.6664 8.15929 16.159 6.66664 17.9997 6.66664H20.3329L24.1328 11.7332C24.2589 11.9012 24.4562 11.9998 24.6662 11.9998H39.3326C39.7006 11.9998 39.9992 11.7012 39.9992 11.3332V0.666883C39.9992 0.298837 39.7006 0.000244141 39.3326 0.000244141ZM18.6663 17.3333H21.3329V19.9998H18.6663V17.3333ZM11.3331 17.3333H17.333V20.6665C17.333 21.0345 17.6317 21.3332 17.9997 21.3332H21.9996C22.3675 21.3332 22.6662 21.0345 22.6662 20.6665V17.3333H28.6661V30.4883L27.5742 31.0703C27.9815 29.4643 27.0095 27.8323 25.4035 27.425C25.1628 27.3643 24.9149 27.333 24.6662 27.333H18.1736C16.0857 26.195 13.6637 25.8284 11.3331 26.2983V17.3333ZM35.75 28.2217C36.0234 28.0764 36.328 27.9996 36.638 27.9996H36.7786C37.8213 27.9996 38.6659 28.845 38.6659 29.8869C38.6659 30.5503 38.3179 31.1649 37.7492 31.5056L26.2901 38.3808C25.9795 38.5674 25.6235 38.6661 25.2608 38.6661H9.33319V28.3996C11.9645 27.0536 15.0964 27.1223 17.6664 28.5817C17.7684 28.639 17.883 28.6677 17.9997 28.6664H24.6663C25.5869 28.6664 26.3329 29.4124 26.3329 30.333C26.3329 31.2536 25.5869 31.9996 24.6663 31.9996H18.6664C18.2984 31.9996 17.9997 32.2983 17.9997 32.6663C17.9997 33.0342 18.2984 33.3329 18.6664 33.3329H25.9996C26.1089 33.3329 26.2169 33.3063 26.3135 33.2549L35.75 28.2217ZM38.6659 10.6667H24.9996L21.9996 6.66679H23.4556C23.8235 7.70812 24.9662 8.25413 26.0075 7.88546C27.0489 7.51749 27.5949 6.37484 27.2262 5.33352C26.8582 4.29219 25.7156 3.74617 24.6742 4.11485C24.105 4.31617 23.6569 4.76414 23.4556 5.33352H21.9996L24.9996 1.3336H38.6659V10.6667ZM24.6662 6.00008C24.6662 5.63211 24.9649 5.33344 25.3328 5.33344C25.7008 5.33344 25.9995 5.63211 25.9995 6.00008C25.9995 6.36804 25.7008 6.66672 25.3328 6.66672C24.9649 6.66672 24.6662 6.36875 24.6662 6.00008Z" fill="black"/>
</svg>
